<?xml version="1.0" encoding="utf-8"?>
<!-- Generator: Adobe Illustrator 23.1.1, SVG Export Plug-In . SVG Version: 6.00 Build 0)  -->
<svg version="1.1" id="Capa_1" xmlns="http://www.w3.org/2000/svg" xmlns:xlink="http://www.w3.org/1999/xlink" x="0px" y="0px"
	 viewBox="0 0 134.3 129.4" style="enable-background:new 0 0 134.3 129.4;" xml:space="preserve">
<style type="text/css">
	.st0{clip-path:url(#SVGID_2_);}
	.st1{fill:#E1D1F4;}
	.st2{opacity:0.44;fill:#EFB630;enable-background:new    ;}
</style>
<title>bg1-alpha</title>
<g>
	<g>
		<g id="Capa_1-2">
			<g>
				<defs>
					<rect id="SVGID_1_" x="0.2" y="0.2" width="134.3" height="129.7"/>
				</defs>
				<clipPath id="SVGID_2_">
					<use xlink:href="#SVGID_1_"  style="overflow:visible;"/>
				</clipPath>
				<g class="st0">
					<path class="st1" d="M86.7,3.3c0,0,7.4,53.1-41.3,79.6s-80.4,16.2-80.4,16.2l10.3-126.8l101.8,7.4
						C77.2-20.4,83.8-16.7,86.7,3.3z"/>
					<path class="st2" d="M67.1,45.8c0,0,14.2-3,24,0.3c15.3,5.1,36.7,16.8,40.9,36.6c3,14.2,0.1,24.4-7.5,34
						C109.8,135.4,81,129,60.7,112c-21-17.7-21.3-27.5-18.1-38.2S53.1,50.6,67.1,45.8z"/>
				</g>
			</g>
		</g>
	</g>
</g>
</svg>
