<?xml version="1.0" encoding="utf-8"?>
<!-- Generator: Adobe Illustrator 23.1.1, SVG Export Plug-In . SVG Version: 6.00 Build 0)  -->
<svg version="1.1" id="Capa_1" xmlns="http://www.w3.org/2000/svg" xmlns:xlink="http://www.w3.org/1999/xlink" x="0px" y="0px"
	 viewBox="0 0 177.2 344.9" style="enable-background:new 0 0 177.2 344.9;" xml:space="preserve">
<style type="text/css">
	.st0{clip-path:url(#SVGID_2_);}
	.st1{fill:#F2F0F2;}
	.st2{fill:#E1D1F4;}
	.st3{opacity:0.44;fill:#EFB630;enable-background:new    ;}
</style>
<title>bg1</title>
<g>
	<g>
		<g id="Capa_1-2">
			<g>
				<defs>
					<rect id="SVGID_1_" x="0" y="0.2" width="177.3" height="344.7"/>
				</defs>
				<clipPath id="SVGID_2_">
					<use xlink:href="#SVGID_1_"  style="overflow:visible;"/>
				</clipPath>
				<g class="st0">
					<rect x="0" y="0.2" class="st1" width="177.3" height="344.7"/>
					<path class="st2" d="M86.5,3.2c0,0,7.4,53.1-41.3,79.6s-80.4,16.2-80.4,16.2l10.3-126.8l101.8,7.4
						C76.9-20.4,83.6-16.7,86.5,3.2z"/>
					<path class="st3" d="M66.9,45.7c0,0,14.2-3,24,0.3c15.3,5.1,36.7,16.8,40.9,36.6c3,14.2,0.1,24.4-7.5,34
						c-14.8,18.7-43.5,12.3-63.9-4.8c-21-17.7-21.3-27.5-18.1-38.2S52.8,50.5,66.9,45.7z"/>
				</g>
			</g>
		</g>
	</g>
</g>
</svg>
