<?xml version="1.0" encoding="utf-8"?>
<!-- Generator: Adobe Illustrator 23.1.1, SVG Export Plug-In . SVG Version: 6.00 Build 0)  -->
<svg version="1.1" id="Capa_1" xmlns="http://www.w3.org/2000/svg" xmlns:xlink="http://www.w3.org/1999/xlink" x="0px" y="0px"
	 viewBox="0 0 178.9 342.8" style="enable-background:new 0 0 178.9 342.8;" xml:space="preserve">
<style type="text/css">
	.st0{clip-path:url(#SVGID_2_);}
	.st1{opacity:0.44;}
	.st2{fill:#EFB630;}
	.st3{fill:#FCA6B6;}
	.st4{fill:#E1D1F4;}
</style>
<title>bg2-alpha</title>
<g>
	<g id="Capa_1-2">
		<g>
			<defs>
				<rect id="SVGID_1_" x="0.5" y="0" width="178.1" height="342.6"/>
			</defs>
			<clipPath id="SVGID_2_">
				<use xlink:href="#SVGID_1_"  style="overflow:visible;"/>
			</clipPath>
			<g class="st0">
				<g class="st1">
					<path class="st2" d="M-57.4,71.8c5.8-18.6,20.9-35,40.2-38.6S24.2,41.3,29,60.4c2.2,9,0.7,18.8,4.3,27.4
						C40,104,61.4,109.1,70.7,124c9,14.4,3.4,34.4-9.3,45.4s-30.4,14.5-47.3,14.1c-24.8-0.5-51.8-10.6-62.9-32.8
						C-58.1,132-61.7,92.1-57.4,71.8"/>
				</g>
				<g class="st1">
					<path class="st2" d="M169.6,224c-4.8,1.6-8.7,5.3-10.5,10.1c-1.7,4.8-1.2,10.1,1.3,14.4c4.9,8.3,17.4,11,25.3,5.4
						c7.9-5.6,9.4-18.1,3.1-25.4s-19.2-7.6-25.9-0.7"/>
				</g>
				<path class="st3" d="M78.7,320.7c8.9,14.8,2.5,37.5-12.5,46.3s-37.6,0.3-46.5-14.4c-8.8-14.7-4-33.6,10.6-42.4
					c0.1-0.1,0.2-0.1,0.4-0.2C45.7,301.1,69.8,305.9,78.7,320.7z"/>
				<path class="st4" d="M238.9,0.5c12,22.9-2.8,58-29.2,71.5s-62.3,0.3-74.3-22.6s-0.3-52.4,26.1-65.9S226.9-22.5,238.9,0.5z"/>
			</g>
		</g>
	</g>
</g>
</svg>
