<?xml version="1.0" encoding="utf-8"?>
<!-- Generator: Adobe Illustrator 23.1.1, SVG Export Plug-In . SVG Version: 6.00 Build 0)  -->
<svg version="1.1" id="Capa_1" xmlns="http://www.w3.org/2000/svg" xmlns:xlink="http://www.w3.org/1999/xlink" x="0px" y="0px"
	 viewBox="0 0 177.3 344.7" style="enable-background:new 0 0 177.3 344.7;" xml:space="preserve">
<style type="text/css">
	.st0{clip-path:url(#SVGID_2_);}
	.st1{fill:#F2F0F2;}
	.st2{opacity:0.44;}
	.st3{fill:url(#SVGID_3_);}
	.st4{fill:#E2D2E9;}
</style>
<title>bg3</title>
<g>
	<g id="Capa_1-2">
		<g>
			<defs>
				<rect id="SVGID_1_" x="0" y="0.1" width="177.3" height="344.7"/>
			</defs>
			<clipPath id="SVGID_2_">
				<use xlink:href="#SVGID_1_"  style="overflow:visible;"/>
			</clipPath>
			<g class="st0">
				<rect x="0" y="0.1" class="st1" width="177.3" height="344.7"/>
				<g class="st2">
					
						<linearGradient id="SVGID_3_" gradientUnits="userSpaceOnUse" x1="-51.4335" y1="302.3659" x2="100.4672" y2="302.3659" gradientTransform="matrix(1 0 0 -1 0 315.7433)">
						<stop  offset="0" style="stop-color:#F28F80"/>
						<stop  offset="0.13" style="stop-color:#F18680"/>
						<stop  offset="0.69" style="stop-color:#ED6482"/>
						<stop  offset="1" style="stop-color:#EB5783"/>
					</linearGradient>
					<path class="st3" d="M-12.8,77.4c-18.6-6.3-34.8-21.9-38.1-41.2S-42-5-22.8-9.2c9.1-2,18.9-0.2,27.5-3.5
						c16.3-6.3,21.9-27.5,37-36.4c14.6-8.5,34.5-2.4,45.3,10.5S101-7.9,100.4,9c-1,24.8-11.5,51.5-34,62
						C47.5,79.8,7.4,82.3-12.8,77.4"/>
				</g>
				<path class="st4" d="M158.5,31.5c-2.9,1-5.2,3.2-6.3,6.1c-1,2.9-0.7,6.1,0.8,8.8c2.9,5.1,10.5,6.7,15.2,3.3
					c4.8-3.7,5.6-10.7,1.9-15.4c0,0,0,0,0,0c-3.8-4.4-11.5-4.6-15.6-0.4"/>
				<path class="st4" d="M202.2,243c8.8,14.9,2.5,37.7-12.4,46.6s-37.4,0.3-46.3-14.5c-8.8-14.9-3.9-34.1,11-42.9c0,0,0,0,0,0
					C169.4,223.3,193.4,228.1,202.2,243z"/>
				<path class="st4" d="M51,316.3c8.8,14.9,2.5,37.7-12.4,46.6s-37.4,0.4-46.2-14.5c-8.8-14.9-3.9-34.1,10.9-42.9
					C18.2,296.6,42.2,301.4,51,316.3z"/>
			</g>
		</g>
	</g>
</g>
</svg>
