<?xml version="1.0" encoding="utf-8"?>
<!-- Generator: Adobe Illustrator 23.1.1, SVG Export Plug-In . SVG Version: 6.00 Build 0)  -->
<svg version="1.1" id="Capa_1" xmlns="http://www.w3.org/2000/svg" xmlns:xlink="http://www.w3.org/1999/xlink" x="0px" y="0px"
	 viewBox="0 0 178.6 345.3" style="enable-background:new 0 0 178.6 345.3;" xml:space="preserve">
<style type="text/css">
	.st0{clip-path:url(#SVGID_2_);}
	.st1{opacity:0.44;}
	.st2{fill:#EFB630;}
	.st3{fill:#FCA6B6;}
	.st4{fill:#F6DABA;}
	.st5{fill:#E1D1F4;}
</style>
<title>bg4-alpha</title>
<g>
	<g id="Capa_1-2">
		<g>
			<defs>
				<rect id="SVGID_1_" x="1" y="0.5" width="177.9" height="344.7"/>
			</defs>
			<clipPath id="SVGID_2_">
				<use xlink:href="#SVGID_1_"  style="overflow:visible;"/>
			</clipPath>
			<g class="st0">
				<g class="st1">
					<path class="st2" d="M99.3,3.4c6.6,18.5,4.4,40.8-8.8,55.4s-38,18.5-53.2,6.1C30.1,59,25.4,50.2,17.4,45.4
						C2.3,36.5-17.9,45.3-34.3,39c-15.8-6.1-23.3-25.6-19.9-42.1s15.5-30,29.2-40C-4.9-57.7,22.7-66,44.9-54.8
						C63.7-45.5,90.5-15.6,99.3,3.4"/>
				</g>
				<path class="st3" d="M164.6,32.3c-4.8,1.6-8.7,5.4-10.5,10.1c-1.7,4.8-1.2,10.1,1.3,14.5c4.9,8.4,17.4,11.1,25.3,5.4
					s9.4-18.3,3.1-25.6s-19.1-7.7-25.9-0.7"/>
				<path class="st4" d="M79,323.2c8.9,14.9,2.5,37.7-12.4,46.6s-37.6,0.4-46.4-14.5c-8.8-14.8-4-34,10.9-42.8c0,0,0.1,0,0.1-0.1
					C46.1,303.5,70.2,308.3,79,323.2z"/>
				<path class="st5" d="M206.4,303.9c12,23.1-2.8,58.4-29.1,71.9S115,376.1,103,353s-0.3-52.8,26-66.3S194.4,280.8,206.4,303.9z"/>
			</g>
		</g>
	</g>
</g>
</svg>
