<?xml version="1.0" encoding="utf-8"?>
<!-- Generator: Adobe Illustrator 23.1.1, SVG Export Plug-In . SVG Version: 6.00 Build 0)  -->
<svg version="1.1" id="Capa_1" xmlns="http://www.w3.org/2000/svg" xmlns:xlink="http://www.w3.org/1999/xlink" x="0px" y="0px"
	 viewBox="0 0 178 344.5" style="enable-background:new 0 0 178 344.5;" xml:space="preserve">
<style type="text/css">
	.st0{clip-path:url(#SVGID_2_);}
	.st1{fill:#F2F0F2;}
	.st2{opacity:0.44;}
	.st3{fill:#EFB630;}
	.st4{fill:#FCA6B6;}
	.st5{fill:#F6DABA;}
	.st6{fill:#E1D1F4;}
</style>
<title>bg4</title>
<g>
	<g id="Capa_1-2">
		<g>
			<defs>
				<rect id="SVGID_1_" x="0.5" y="-0.3" width="177.9" height="344.7"/>
			</defs>
			<clipPath id="SVGID_2_">
				<use xlink:href="#SVGID_1_"  style="overflow:visible;"/>
			</clipPath>
			<g class="st0">
				<rect x="0.5" y="-0.3" class="st1" width="177.9" height="344.7"/>
				<g class="st2">
					<path class="st3" d="M98.7,2.6c6.6,18.5,4.4,40.8-8.8,55.4s-38,18.5-53.2,6.1c-7.2-5.9-11.9-14.7-19.9-19.4
						c-15.1-8.9-35.3-0.1-51.7-6.4c-15.8-6.1-23.3-25.6-19.9-42.1c3.4-16.5,15.5-30,29.2-40c20.1-14.6,47.7-22.9,69.9-11.7
						C63.1-46.3,90-16.4,98.7,2.6"/>
				</g>
				<path class="st4" d="M164,31.5c-4.8,1.6-8.7,5.4-10.5,10.1c-1.7,4.8-1.2,10.1,1.3,14.5c4.9,8.4,17.4,11.1,25.3,5.4
					s9.4-18.3,3.1-25.6s-19.1-7.7-25.9-0.7"/>
				<path class="st5" d="M78.5,322.4c8.9,14.9,2.5,37.7-12.4,46.6s-37.6,0.4-46.4-14.5c-8.8-14.8-4-34,10.9-42.8c0,0,0.1,0,0.1-0.1
					C45.5,302.6,69.6,307.5,78.5,322.4z"/>
				<path class="st6" d="M205.8,303c12,23.1-2.8,58.4-29.1,71.9s-62.2,0.3-74.2-22.8s-0.3-52.8,26-66.3S193.8,280,205.8,303z"/>
			</g>
		</g>
	</g>
</g>
</svg>
