<svg xmlns="http://www.w3.org/2000/svg" viewBox="0 0 179 346" width="179" height="346">
	<style>
		tspan { white-space:pre }
		.shp0 { fill: #efb630 } 
		.shp1 { fill: #fca6b6 } 
		.shp2 { fill: #e1d1f4 } 
	</style>
	<g id="Layer">
		<g id="Capa_1-2">
			<g id="Layer">
				<g id="Layer">
					<g id="Layer" style="opacity: 0.439">
						<path id="Layer" class="shp0" d="M99.3 3.4C105.9 21.9 103.7 44.2 90.5 58.8C77.3 73.4 52.5 77.3 37.3 64.9C30.1 59 25.4 50.2 17.4 45.4C2.3 36.5 -17.9 45.3 -34.3 39C-50.1 32.9 -57.6 13.4 -54.2 -3.1C-50.8 -19.6 -38.7 -33.1 -25 -43.1C-4.9 -57.7 22.7 -66 44.9 -54.8C63.7 -45.5 90.5 -15.6 99.3 3.4Z" />
					</g>
					<path id="Layer" class="shp1" d="M164.6 32.3C159.8 33.9 155.9 37.7 154.1 42.4C152.4 47.2 152.9 52.5 155.4 56.9C160.3 65.3 172.8 68 180.7 62.3C188.6 56.6 190.1 44 183.8 36.7C177.5 29.4 164.7 29 157.9 36" />
					<path id="Layer" class="shp2" d="M28.4 167.9C40.4 191 25.6 226.3 -0.7 239.8C-27 253.3 -63 240.1 -75 217C-87 193.9 -75.3 164.2 -49 150.7C-22.7 137.2 16.4 144.8 28.4 167.9Z" />
				</g>
			</g>
		</g>
	</g>
</svg>