<svg xmlns="http://www.w3.org/2000/svg" viewBox="0 0 13.83 11.87"><defs><style>.cls-1{fill:#384389;}</style></defs><title>baby-icon</title><g id="Capa_2" data-name="Capa 2"><g id="Capa_1-2" data-name="Capa 1"><g id="Outline"><path class="cls-1" d="M13.15,9.59H11.33V6.86A2.53,2.53,0,0,0,8.82,4.35H6.53a1,1,0,0,0-.16-1V3.19A3.19,3.19,0,1,0,0,3.19V4.33A3.19,3.19,0,0,0,2,7.27H2V8.83L.87,10.31a1.17,1.17,0,0,0-.7,1.07v.26a.23.23,0,0,0,.23.23H2a.23.23,0,0,0,.18-.09l2.05-2.5a.25.25,0,0,0,0-.15V9c.12.08.25.15.38.22l-.82,1.08a1.17,1.17,0,0,0-.7,1.07v.26a.23.23,0,0,0,.23.23H5a.24.24,0,0,0,.18-.09L6.88,9.59H7.2l-.08.8a1.35,1.35,0,0,0,1.2,1.47,1.75,1.75,0,0,0,.46,0l.55-.14a1.42,1.42,0,0,0,1.09.12l1-.3,0,.06a.66.66,0,0,0,.93.18.39.39,0,0,0,.1-.08l.1-.12v0a.66.66,0,0,0,.93.18.65.65,0,0,0,.3-.56v-.92A.69.69,0,0,0,13.15,9.59ZM10.87,6.86v.35a1.36,1.36,0,0,0-1.93.1,1.4,1.4,0,0,0-.35.91v.91H8.14V4.81h.68A2.05,2.05,0,0,1,10.87,6.86ZM.46,4.33V3.19A2.73,2.73,0,0,1,5.91,3,.92.92,0,0,0,5.58,3h0a.11.11,0,0,0-.12.11v.25a.1.1,0,0,0,.1.09h0A.59.59,0,0,1,6.15,4a.57.57,0,0,1-.57.59h0a.12.12,0,0,0-.12.12v.22A.12.12,0,0,0,5.58,5h0a.78.78,0,0,0,.26,0A2.73,2.73,0,0,1,3,7.05H3A2.71,2.71,0,0,1,.46,4.33Zm1.42,7.08H.63v0a.71.71,0,0,1,.46-.67.18.18,0,0,0,.1-.07L2.4,9a.21.21,0,0,0,.05-.13V7.43A4,4,0,0,0,3,7.5H3l.15.27a3.46,3.46,0,0,0,.66.86v.41ZM6.54,9.28l-1.7,2.13H3.59v0a.71.71,0,0,1,.46-.67.18.18,0,0,0,.1-.07L5.36,9a.21.21,0,0,0,0-.13V8a.23.23,0,0,0-.23-.23h0A.23.23,0,0,0,5,8v.83l0,0a3,3,0,0,1-1.38-1.3l0-.06.14,0A3.2,3.2,0,0,0,6.34,4.81H7.68V9.13H7V8a.23.23,0,0,0-.23-.23h0A.23.23,0,0,0,6.54,8Zm2.13,2.1a.88.88,0,0,1-1.07-.64.76.76,0,0,1,0-.3l.08-.85h.93v.86a1.41,1.41,0,0,0,.31.88Zm3.35,0a.25.25,0,0,1-.13,0l.33-.11a.21.21,0,0,1-.2.15Zm1.35-.22a.21.21,0,0,1-.21.22.21.21,0,0,1-.18-.1l-.33-.48a.22.22,0,0,0-.25-.09l-2.11.63a1,1,0,0,1-1.2-.65.84.84,0,0,1,0-.27V8.22a.91.91,0,0,1,1.82,0v1.6a.22.22,0,0,0,.23.22h2.05a.23.23,0,0,1,.22.23Z"/><circle class="cls-1" cx="1.37" cy="4.33" r="0.46"/><circle class="cls-1" cx="4.1" cy="4.33" r="0.46"/><path class="cls-1" d="M2.73,5.92a.68.68,0,0,0,.6-.36.22.22,0,0,0-.19-.32h0a.21.21,0,0,0-.19.11.22.22,0,0,1-.2.11.2.2,0,0,1-.19-.11.24.24,0,0,0-.2-.11h0a.22.22,0,0,0-.19.32A.68.68,0,0,0,2.73,5.92Z"/><path class="cls-1" d="M2.14,1.66a.23.23,0,0,0-.31.18A1.3,1.3,0,0,0,2,2.56a1.28,1.28,0,0,0,.77.61A.23.23,0,0,0,3,3v-.1l0-.19a.76.76,0,0,1,.14-.6.71.71,0,0,1,.33-.23.22.22,0,0,0,.15-.23h0a.22.22,0,0,0-.29-.2,1.12,1.12,0,0,0-.55.38,1.2,1.2,0,0,0-.25.68,0,0,0,0,1,0,0,.7.7,0,0,1-.13-.17.86.86,0,0,1-.09-.46.22.22,0,0,0-.13-.23Z"/></g></g></g></svg>