<svg xmlns="http://www.w3.org/2000/svg" viewBox="0 0 11.71 11.35"><defs><style>.cls-1{fill:#384389;}</style></defs><title>bathroom-icon</title><g id="Capa_2" data-name="Capa 2"><g id="Capa_1-2" data-name="Capa 1"><path class="cls-1" d="M10.21,11l-.29-1h0a2.38,2.38,0,0,0,1.25-2.09V7.69h0a.37.37,0,0,0,.36-.37V7a.36.36,0,0,0-.36-.37h0V4.76h0a.37.37,0,0,0,.36-.37V4a.37.37,0,0,0-.37-.37H6.41A.37.37,0,0,0,6,4v.36a.37.37,0,0,0,.37.37h0V6.59h0A.36.36,0,0,0,6,7v.36a.37.37,0,0,0,.37.37h0v.18A2.37,2.37,0,0,0,7.65,10h0l-.28,1H4.92A.9.9,0,0,0,4,10.25H3.84V8.6h0A2.39,2.39,0,0,0,5.31,6.41v-1A.34.34,0,0,0,5,5.13H2V4.39h.74v.19a.18.18,0,0,0,.18.18h0a.18.18,0,0,0,.18-.18V4.39A.36.36,0,0,0,2.74,4H1.28a.36.36,0,0,0-.36.36v.73h0a.34.34,0,0,0-.34.33v1A2.38,2.38,0,0,0,2,8.6H2v1.65H1.83a.92.92,0,0,0-.9.73H.18a.18.18,0,0,0-.18.19H0a.18.18,0,0,0,.18.18H11.53a.18.18,0,0,0,.18-.18h0a.18.18,0,0,0-.18-.19ZM6.41,4h4.76v.36H6.41V4Zm.36,1.46h.55a.18.18,0,0,0,.18-.18h0a.18.18,0,0,0-.18-.18H6.77V4.76h4V6.59h-4V5.49ZM6.41,7h4.76v.36H6.41V7Zm.36.88V7.69h4v.18a2,2,0,0,1-2,2A2,2,0,0,1,6.77,7.84ZM8,10.11H8a2.33,2.33,0,0,0,1.59,0h0l.25.87H7.75ZM1.28,4.39h.37v.73H1.28ZM4.94,5.71v.15h-4V5.71a.21.21,0,0,1,.21-.22H4.72A.22.22,0,0,1,4.94,5.71Zm-4,.67V6.22h4v.19a2,2,0,1,1-4,0ZM2.38,8.72h0a2.51,2.51,0,0,0,.55.07,2.51,2.51,0,0,0,.55-.07h0v1.53H2.38Zm-.55,1.9H4a.54.54,0,0,1,.51.36H1.32A.53.53,0,0,1,1.83,10.62Z"/><path class="cls-1" d="M.73,3.66H5.12a.55.55,0,0,0,.55-.55V.55A.55.55,0,0,0,5.12,0H.73A.55.55,0,0,0,.18.55V3.11A.55.55,0,0,0,.73,3.66ZM.55.55A.18.18,0,0,1,.73.37H5.12a.18.18,0,0,1,.19.18V3.11a.18.18,0,0,1-.19.18H.73a.18.18,0,0,1-.18-.18Z"/><path class="cls-1" d="M.92.73h0a.18.18,0,0,1,.25,0L3.11,2.67a.19.19,0,0,1,0,.26h0a.19.19,0,0,1-.26,0L.92,1A.17.17,0,0,1,.92.73Z"/><path class="cls-1" d="M2.75.73h0A.18.18,0,0,1,3,.73L4.94,2.67a.19.19,0,0,1,0,.26h0a.19.19,0,0,1-.26,0L2.75,1A.17.17,0,0,1,2.75.73Z"/></g></g></svg>