<svg xmlns="http://www.w3.org/2000/svg" viewBox="0 0 10.14 8.78"><defs><style>.cls-1{fill:#384389;}</style></defs><title>bedroom-icon</title><g id="Capa_2" data-name="Capa 2"><g id="Capa_1-2" data-name="Capa 1"><path class="cls-1" d="M10,5.07H9.8V4.56a.84.84,0,0,0-.51-.77V1.18A.16.16,0,0,0,9.19,1a.64.64,0,0,0,.1-.35.68.68,0,1,0-1.35,0A.66.66,0,0,0,8,1H2.1A.67.67,0,0,0,2.2.68.68.68,0,0,0,.84.68.66.66,0,0,0,1,1a.16.16,0,0,0-.11.15V3.79a.85.85,0,0,0-.5.77v.51H.17A.17.17,0,0,0,0,5.24V7.6a.18.18,0,0,0,.17.17H.34v.85a.16.16,0,0,0,.17.16h.67a.16.16,0,0,0,.17-.16V7.77H8.78v.85A.17.17,0,0,0,9,8.78h.68a.17.17,0,0,0,.17-.16V7.77H10a.18.18,0,0,0,.17-.17V5.24A.17.17,0,0,0,10,5.07ZM8.62.34a.34.34,0,1,1-.34.34A.34.34,0,0,1,8.62.34Zm-7.1,0a.34.34,0,1,1-.34.34A.34.34,0,0,1,1.52.34Zm-.34,1H9V3.72H8.27a.88.88,0,0,0,.18-.51V2.87A.85.85,0,0,0,7.6,2H6.25a.84.84,0,0,0-.84.84v.34a.87.87,0,0,0,.17.51h-1a.87.87,0,0,0,.17-.51V2.87A.85.85,0,0,0,3.89,2H2.53a.85.85,0,0,0-.84.84v.34a.87.87,0,0,0,.17.51H1.18ZM8.11,2.87v.34a.51.51,0,0,1-.51.51H6.25a.51.51,0,0,1-.51-.51V2.87a.51.51,0,0,1,.51-.51H7.6A.51.51,0,0,1,8.11,2.87Zm-3.72,0v.34a.5.5,0,0,1-.5.51H2.53A.5.5,0,0,1,2,3.21V2.87a.5.5,0,0,1,.5-.51H3.89A.5.5,0,0,1,4.39,2.87ZM.68,4.56a.5.5,0,0,1,.5-.51H9a.51.51,0,0,1,.51.51v.51H.68ZM1,8.45H.68V7.77H1Zm8.45,0H9.12V7.77h.34Zm.34-1H.34v-2H9.8Z"/><path class="cls-1" d="M1.52,6.76H.84a.16.16,0,0,0-.16.17.16.16,0,0,0,.16.16h.68a.17.17,0,0,0,.17-.16A.17.17,0,0,0,1.52,6.76Z"/><path class="cls-1" d="M9.29,6.76H2.2A.16.16,0,0,0,2,6.93a.16.16,0,0,0,.17.16H9.29a.17.17,0,0,0,.17-.16A.17.17,0,0,0,9.29,6.76Z"/></g></g></svg>