<svg xmlns="http://www.w3.org/2000/svg" viewBox="0 0 12.17 11.77"><defs><style>.cls-1{fill:#384389;}</style></defs><title>house-icon</title><g id="Capa_2" data-name="Capa 2"><g id="Capa_1-2" data-name="Capa 1"><path class="cls-1" d="M11.56,10.17v0a.81.81,0,0,0-.81-.81V5.58L11.48,5a.2.2,0,0,0,0-.28.08.08,0,0,0,0,0L9.74,3.43V1.22A.2.2,0,0,0,9.94,1V.2a.2.2,0,0,0-.2-.2h-2a.2.2,0,0,0-.2.2V1a.2.2,0,0,0,.2.21V2L6.21.85A.21.21,0,0,0,6,.85L.69,4.71A.19.19,0,0,0,.65,5l0,0,.73.55V9.33a.81.81,0,0,0-.81.81v0a.81.81,0,0,0,.2,1.6H11.36a.81.81,0,0,0,.2-1.6ZM7.91.41H9.54v.4H7.91Zm.21,1.82v-1H9.33V3.14L8.1,2.23Zm-2-1L11,4.87l-.47.36L6.21,2.07a.21.21,0,0,0-.24,0L1.63,5.23l-.48-.36ZM.41,11a.4.4,0,0,1,.4-.41h0a.19.19,0,0,0,.21-.19.25.25,0,0,0,0-.08.58.58,0,0,1,0-.14.42.42,0,0,1,.41-.4v1.62H.81A.4.4,0,0,1,.41,11Zm8.72.4H6.7V6.9H9.13Zm.41,0V6.7a.21.21,0,0,0-.21-.21H6.49a.2.2,0,0,0-.2.21v4.66H1.83V5.58l4.26-3.1,4.26,3.1v5.78Zm1.82,0h-.61V9.74a.4.4,0,0,1,.41.4.32.32,0,0,1,0,.14.2.2,0,0,0,.12.26.14.14,0,0,0,.09,0h0a.41.41,0,1,1,0,.81Z"/><path class="cls-1" d="M5.28,6.49H2.84a.2.2,0,0,0-.2.21V9.54a.2.2,0,0,0,.2.2H5.28a.2.2,0,0,0,.2-.2V6.7A.2.2,0,0,0,5.28,6.49ZM5.07,7.91H4.26v-1h.81Zm-1.21-1v1H3v-1ZM3,8.32h.82v1H3Zm1.22,1v-1h.81v1Z"/></g></g></svg>