<svg xmlns="http://www.w3.org/2000/svg" viewBox="0 0 13.05 13.05"><defs><style>.cls-1{fill:#384389;}</style></defs><title>kitchen-icon</title><g id="Capa_2" data-name="Capa 2"><g id="Capa_1-2" data-name="Capa 1"><g id="SVGCleanerId_0" data-name="SVGCleanerId 0"><path class="cls-1" d="M9.35,7.83H3.7a.22.22,0,0,0-.22.22v4.79a.21.21,0,0,0,.22.21H9.35a.21.21,0,0,0,.22-.21V8.05A.22.22,0,0,0,9.35,7.83Zm-.21,4.79H3.92V8.27H9.14v4.35Z"/></g><path class="cls-1" d="M9.35,7.83H3.7a.22.22,0,0,0-.22.22v4.79a.21.21,0,0,0,.22.21H9.35a.21.21,0,0,0,.22-.21V8.05A.22.22,0,0,0,9.35,7.83Zm-.21,4.79H3.92V8.27H9.14v4.35Z"/><path class="cls-1" d="M3.7,7.83H.22A.22.22,0,0,0,0,8.05v4.79a.21.21,0,0,0,.22.21H3.7a.21.21,0,0,0,.22-.21V8.05A.22.22,0,0,0,3.7,7.83Zm-.22,4.79h-3V8.27h3v4.35Z"/><path class="cls-1" d="M12.84,7.83H9.35a.21.21,0,0,0-.21.22v4.79a.21.21,0,0,0,.21.21h3.49a.21.21,0,0,0,.21-.21V8.05A.21.21,0,0,0,12.84,7.83Zm-.22,4.79h-3V8.27h3v4.35Z"/><path class="cls-1" d="M8.48,9.57H4.57a.22.22,0,0,0-.22.22V12a.21.21,0,0,0,.22.21H8.48A.21.21,0,0,0,8.7,12V9.79A.22.22,0,0,0,8.48,9.57Zm-.21,2.18H4.79V10H8.27v1.74Z"/><rect class="cls-1" x="6.74" y="8.7" width="0.44" height="0.44"/><rect class="cls-1" x="5.87" y="8.7" width="0.44" height="0.44"/><rect class="cls-1" x="5" y="8.7" width="0.44" height="0.44"/><rect class="cls-1" x="7.61" y="8.7" width="0.44" height="0.44"/><rect class="cls-1" x="0.22" y="9.57" width="3.48" height="0.44"/><rect class="cls-1" x="1.52" y="8.7" width="0.87" height="0.44"/><rect class="cls-1" x="1.52" y="10.44" width="0.87" height="0.44"/><rect class="cls-1" x="9.35" y="9.57" width="3.48" height="0.44"/><rect class="cls-1" x="10.88" y="9.79" width="0.44" height="3.05"/><rect class="cls-1" x="10.66" y="8.7" width="0.87" height="0.44"/><rect class="cls-1" x="10.01" y="10.88" width="0.44" height="0.65"/><rect class="cls-1" x="11.75" y="10.88" width="0.44" height="0.65"/><path class="cls-1" d="M9.29,3.54l-.81-.8V.22A.21.21,0,0,0,8.27,0H4.79a.22.22,0,0,0-.22.22V2.74l-.81.8a.24.24,0,0,0,0,.24.24.24,0,0,0,.21.14H9.14a.22.22,0,0,0,.15-.38ZM4.44,3.48l.5-.5A.2.2,0,0,0,5,2.83V.44H8.05V2.83A.2.2,0,0,0,8.11,3l.5.5Z"/><path class="cls-1" d="M11.75,4.79a.87.87,0,0,0-.87.87v.21h.43V5.66a.44.44,0,0,1,.44-.44.44.44,0,0,1,.43.44V8.05h.44V5.66A.87.87,0,0,0,11.75,4.79Z"/><rect class="cls-1" x="11.75" y="6.96" width="0.65" height="0.44"/><path class="cls-1" d="M6.31,6.53H4.13a.21.21,0,0,0-.21.21V8.05a.21.21,0,0,0,.21.22H6.31a.22.22,0,0,0,.22-.22V6.74A.21.21,0,0,0,6.31,6.53Zm-.22,1.3H4.35V7H6.09Z"/><rect class="cls-1" x="3.48" y="6.96" width="0.65" height="0.44"/><rect class="cls-1" x="6.31" y="6.96" width="0.65" height="0.44"/><rect class="cls-1" y="4.35" width="3.92" height="0.44"/><rect class="cls-1" x="0.44" y="3.92" width="0.44" height="1.96"/><path class="cls-1" d="M.65,5.66A.65.65,0,0,0,.65,7a.65.65,0,1,0,0-1.3Zm0,.87a.22.22,0,0,1,0-.44.22.22,0,0,1,0,.44Z"/><rect class="cls-1" x="1.31" y="3.92" width="0.44" height="1.96"/><path class="cls-1" d="M1.52,5.66a.65.65,0,0,0,0,1.3.65.65,0,1,0,0-1.3Zm0,.87a.22.22,0,0,1,0-.44.22.22,0,0,1,0,.44Z"/><rect class="cls-1" x="2.18" y="3.92" width="0.44" height="1.96"/><path class="cls-1" d="M2.39,5.66a.65.65,0,0,0,0,1.3.65.65,0,1,0,0-1.3Zm0,.87a.22.22,0,0,1,0-.44.22.22,0,0,1,0,.44Z"/></g></g></svg>