<svg xmlns="http://www.w3.org/2000/svg" viewBox="0 0 13.73 13.73"><defs><style>.cls-1{fill:#384389;}</style></defs><title>livingroom-icon</title><g id="Capa_2" data-name="Capa 2"><g id="Capa_1-2" data-name="Capa 1"><path class="cls-1" d="M13.05,8h-.69V5.72a1.14,1.14,0,0,0-1.14-1.14H7.55A1.14,1.14,0,0,0,6.41,5.72V8H5.72A.68.68,0,0,0,5,8.7V11a1.13,1.13,0,0,0,1.07,1.13l-.33,1.16H3.64a1.14,1.14,0,0,0-1.12-.92H2.06V1.82a1.37,1.37,0,0,1,2.72-.19v0a.66.66,0,0,0-.41.74l.06.37-.61,1a.43.43,0,0,0,0,.46.45.45,0,0,0,.39.23h.08l2.19-.37a.46.46,0,0,0,.37-.33.45.45,0,0,0-.14-.47l-.93-.8-.06-.36a.69.69,0,0,0-.48-.55V1.56a1.82,1.82,0,0,0-3.63.26V12.36H1.14v-.23a.23.23,0,0,0-.22-.23.23.23,0,0,0-.23.23v.33a1.13,1.13,0,0,0-.69,1,.23.23,0,0,0,.23.23H13.5a.23.23,0,1,0,0-.45H13l-.33-1.16A1.13,1.13,0,0,0,13.73,11V8.7A.68.68,0,0,0,13.05,8ZM6.41,3.68l-2.2.37.6-1,.69-.11.91.77Zm-1.1-1.2-.45.07,0-.22A.23.23,0,0,1,5,2.06H5a.23.23,0,0,1,.23.19ZM7.55,5h3.67a.68.68,0,0,1,.68.68V8.05a.72.72,0,0,0-.46.65v.46a1.09,1.09,0,0,0-.68-.23H9.94l.52-.53a.23.23,0,0,0-.32-.32l-.53.52v-1a.23.23,0,1,0-.45,0v1l-.53-.52a.23.23,0,0,0-.32.32l.52.53H8a1.14,1.14,0,0,0-.69.23V8.7a.69.69,0,0,0-.45-.65V5.72A.67.67,0,0,1,7.55,5Zm3.21,4.34a.69.69,0,0,1,.68.69v.23H7.32v-.23A.7.7,0,0,1,8,9.38Zm.32,2.75.66,1.15H7l.66-1.15Zm.36-.46H7.32v-.91h4.12ZM5.49,11V8.7a.23.23,0,0,1,.23-.23h.92a.23.23,0,0,1,.23.23v3H6.18A.68.68,0,0,1,5.49,11Zm-5,2.29a.67.67,0,0,1,.64-.46H2.52a.69.69,0,0,1,.65.46Zm5.75,0,.33-1.15h.58L6.5,13.28Zm6,0-.65-1.15h.58l.32,1.15Zm1-2.29a.69.69,0,0,1-.69.68H11.9v-3a.23.23,0,0,1,.23-.23h.92a.23.23,0,0,1,.23.23Z"/></g></g></svg>