<svg xmlns="http://www.w3.org/2000/svg" viewBox="0 0 13.48 13.48"><defs><style>.cls-1{fill:#384389;}</style></defs><title>pet-icon</title><g id="Capa_2" data-name="Capa 2"><g id="Capa_1-2" data-name="Capa 1"><g id="Outline"><path class="cls-1" d="M3.59,5.17H4v.45H3.59Zm1.13.45h.45V5.17H4.72Zm8.34,3.9a5.63,5.63,0,0,1,.42,2.14v1.6a.22.22,0,0,1-.22.22h-1.8V13H13V11.66A5.11,5.11,0,0,0,11.52,8L10,6.48a1.88,1.88,0,0,1-.53-1.09H6.07v6.74a.23.23,0,0,1-.23.23.45.45,0,0,0-.45.45V13h.9v-.22A.9.9,0,0,1,7,11.94V7.86h.44v4.27a.22.22,0,0,1-.22.23.45.45,0,0,0-.45.45V13H8.31V7.86h.45V12a.89.89,0,0,1,.45-.12h.45v-1a3.3,3.3,0,0,1,1-2.33l.31.32a2.85,2.85,0,0,0-.83,2v1.2a.22.22,0,0,1-.22.23H9.21a.45.45,0,0,0-.45.45V13h2.31v.45H.22A.22.22,0,0,1,0,13.26V7.82A1.58,1.58,0,0,1,.26,7l.45-.67A1.13,1.13,0,0,0,.9,5.66h0a1.21,1.21,0,0,0-.47-1L.26,4.58A.68.68,0,0,1,0,4.05H0a.67.67,0,0,1,.67-.68H.74a.66.66,0,0,1,.42.15l.14.11a2.52,2.52,0,0,1,1,2A2.48,2.48,0,0,1,1.82,7l-.36.55a.49.49,0,0,0-.08.18L1,7.59a1,1,0,0,1,.14-.3l.36-.55A2,2,0,0,0,1.8,5.6,2.08,2.08,0,0,0,1,4L.88,3.87a.24.24,0,0,0-.14-.05H.67a.22.22,0,0,0-.22.23h0a.21.21,0,0,0,.08.17l.17.12a1.63,1.63,0,0,1,.65,1.3v0a1.52,1.52,0,0,1-.27.87L.64,7.2a1.06,1.06,0,0,0-.19.62V9.05A3.62,3.62,0,0,1,1.6,7.8l.8-.53a.71.71,0,0,0,.3-.56V3.82a.23.23,0,0,1,.22-.23l.07,0,.2.06a1.5,1.5,0,0,1,.76.6h.86a1.58,1.58,0,0,1,.29-.34l.29.35a1.07,1.07,0,0,0-.25.31.21.21,0,0,1-.2.13H3.82a.22.22,0,0,1-.2-.13,1,1,0,0,0-.47-.45V6.71a1.12,1.12,0,0,1-.5.93l-.8.53a3.15,3.15,0,0,0-1.4,2.62V13H3.59a.45.45,0,0,0-.44-.45H2.47a.22.22,0,0,1-.22-.22v-.62a2.08,2.08,0,0,0-.61-1.47L2,10a2.54,2.54,0,0,1,.74,1.79v.39h.45a.83.83,0,0,1,.22,0V9.66h.45v2.78A.9.9,0,0,1,4,13h.45V9.66h.45v3.15a.9.9,0,0,1,.68-.87V3.15H5.17A.24.24,0,0,1,5,3L4.29,1.44a.22.22,0,0,1,.08-.28L5.29.58,5.53,1l-.75.47L5.32,2.7h.3V1.8a.3.3,0,0,1,0-.1L6.09.8l.4.2-.42.85V4H9.44V1.85L9,1l.4-.2.45.9a.17.17,0,0,1,0,.1v.9h.3l.54-1.26L9.42.62A1.12,1.12,0,0,0,8.83.45H6.68a1.16,1.16,0,0,0-.6.17l-.2.13L5.64.37l.2-.13A1.55,1.55,0,0,1,6.68,0H8.83a1.54,1.54,0,0,1,.83.24l1.47.92a.23.23,0,0,1,.09.28L10.54,3a.22.22,0,0,1-.2.14H9.89v2a1.37,1.37,0,0,0,.41,1l1.13,1.13a4,4,0,0,0-.6-2.94A.21.21,0,0,1,10.88,4l.06,0,.48-.14A1,1,0,0,1,12.3,4a1.06,1.06,0,0,1,.43.77h0a1.46,1.46,0,0,1,.45,1.67A2.31,2.31,0,0,1,13.44,8a3.36,3.36,0,0,1-.15.7l-.43-.14A3.26,3.26,0,0,0,13,8a1.9,1.9,0,0,0-.25-1.34.24.24,0,0,1,0-.22,1,1,0,0,0-.28-1.24l-.09-.07a.25.25,0,0,1-.08-.18A.64.64,0,0,0,12,4.38a.54.54,0,0,0-.49-.09l-.18.06a4.66,4.66,0,0,1,.46,3.33l0,0A5.76,5.76,0,0,1,13.06,9.52Zm-3.62-5H6.07v.45H9.44ZM6.52,3.15H7a.45.45,0,0,0,.39-.23A.43.43,0,0,1,7,2.49V2.23A.43.43,0,0,1,7.4,1.8h.48a.43.43,0,0,1,.43.43v.26a.43.43,0,0,1-.39.43.45.45,0,0,0,.39.23h.45v.44H8.31a.87.87,0,0,1-.67-.3.87.87,0,0,1-.67.3H6.52Zm.89-.68h.45V2.25H7.41ZM7,1.35H6.52V1.8H7Zm1.79,0H8.31V1.8h.45Z"/></g></g></g></svg>