<svg xmlns="http://www.w3.org/2000/svg" viewBox="0 0 46.06 39.41"><defs>
<style>.logo{fill:#384389;}</style>
</defs>
<title>logo</title>
<g id="Capa_2" data-name="Capa 2">
<g id="Capa_1-2" data-name="Capa 1">
<path class="logo" d="M33.58,17.91l-.11.13.1-.15-.09-.07-.34-.25c-.25-.19-.5-.38-.74-.58a1.22,1.22,0,0,1-.33-.35c-.16-.38-.31-.77-.45-1.16s-.39-1-.61-1.55c-.3-.68-.65-1.34-1-2-.11-.22-.23-.44-.34-.67l0,0C29.11,10.16,28.54,9.05,28,8s-1-2-1.55-2.92l-.33-.61-2.15-4a.89.89,0,0,0-1.54,0l0,0c-.39.7-.78,1.42-1.16,2.14l-1,1.91c-.59,1.09-1.2,2.21-1.79,3.32-.21.39-.41.79-.61,1.18-.3.59-.61,1.2-.94,1.78a35.48,35.48,0,0,0-2.56,5.59.16.16,0,0,1,0,.07l-.8.54q-.47.3-.93.63a.73.73,0,0,0-.25.77.63.63,0,0,0,.37.41.67.67,0,0,0,.55,0l.17-.09a4.49,4.49,0,0,0,.42-.24l.06,0a7.86,7.86,0,0,0,.6,3.84,4.21,4.21,0,0,0,.34.63l.23.4a5.91,5.91,0,0,0,1.74,2.1,9.43,9.43,0,0,0,4.11,1.77,14.4,14.4,0,0,0,2.48.2c.56,0,1.16,0,1.76-.09a9.46,9.46,0,0,0,2.78-.81,6.39,6.39,0,0,0,2.54-1.83,10.14,10.14,0,0,0,1.29-2,7.09,7.09,0,0,0,.78-3.87h0l.25.19a.69.69,0,0,0,1.14-.55A.72.72,0,0,0,33.58,17.91ZM23.14,1.83c.26.44.5.86.73,1.28s.44.82.66,1.23l.42.81c.19.37.39.74.59,1.1L26.2,7.5c.51.95,1,1.9,1.5,2.86l.38.71c.15.3.31.59.48.91.37.7.75,1.42,1.1,2.14.19.41.36.83.53,1.25L29,14.5l-1.85-1.35-2.59-1.92L24,10.84a1.54,1.54,0,0,1-.19-.17.89.89,0,0,0-.61-.33,1,1,0,0,0-.55.22l-1.46,1-.14.09-2.24,1.55L17.31,14.3l0,0-.78.56-.26.19,0-.1c.36-.83.74-1.69,1.14-2.51.51-1,1.05-2,1.58-3l.64-1.2c.37-.68.73-1.37,1.11-2.06l2.15-3.94c.08-.15.17-.3.26-.44ZM19.27,14.59c.52-.37,1.06-.73,1.55-1.06.34-.22.68-.44,1-.67l1.34-.95c1,.74,2,1.49,3,2.21l1.75,1.29c1,.72,2,1.46,3,2.2a.24.24,0,0,1,.1.12c0,.17.06.31.09.45s.07.37.1.6a.25.25,0,0,0,0,.08,5.55,5.55,0,0,1,0,.91,6.75,6.75,0,0,1-.94,2.87,7.31,7.31,0,0,1-1.14,1.51,7.35,7.35,0,0,1-2.32,1.38l-.23.08-.19-4.2a1,1,0,0,0-1-.94H21.42a1,1,0,0,0-1,1l-.12,4.31a8.16,8.16,0,0,1-2.22-1,5.44,5.44,0,0,1-1.75-1.69,7.37,7.37,0,0,1-1.17-2.84,6.38,6.38,0,0,1,.16-2.81l0,0,.52-.37C17,16.21,18.13,15.38,19.27,14.59Zm6,11.31a11.07,11.07,0,0,1-1.24.1A16,16,0,0,1,21.52,26l.12-4.28h3.48Z"/><path class="logo" d="M4.31,39.25a.62.62,0,0,1-.62-.63V36.28c0-.73-.39-1.4-1.14-1.4a1.27,1.27,0,0,0-1.18,1.4v2.34a.63.63,0,0,1-.62.63H.62A.63.63,0,0,1,0,38.62V34.31a.62.62,0,0,1,.62-.62H.75a.62.62,0,0,1,.62.63v0a1.59,1.59,0,0,1,1.46-.77,1.65,1.65,0,0,1,1.64,1,2,2,0,0,1,1.86-1c1.57,0,2.35,1,2.35,2.64v2.36a.63.63,0,0,1-.62.63H7.93a.62.62,0,0,1-.62-.63V36.26c0-.74-.31-1.35-1-1.35a1.26,1.26,0,0,0-1.2,1.37v2.34a.63.63,0,0,1-.62.63Z"/><path class="logo" d="M15,33.7h.12a.62.62,0,0,1,.62.62v4.3a.63.63,0,0,1-.62.63H15a.63.63,0,0,1-.62-.63v-.18a2.09,2.09,0,0,1-1.8,1,2.68,2.68,0,0,1-2.85-2.94,2.7,2.7,0,0,1,2.89-2.9,2,2,0,0,1,1.76.9v-.15A.62.62,0,0,1,15,33.7Zm-3.9,2.77a1.62,1.62,0,0,0,2,1.65,1.68,1.68,0,0,0-.09-3.31A1.6,1.6,0,0,0,11.14,36.47Z"/><path class="logo" d="M18.23,37a1.47,1.47,0,0,0,1.65,1.18A2.63,2.63,0,0,0,21,37.88a.61.61,0,0,1,.72.11h0a.62.62,0,0,1-.13,1,3.81,3.81,0,0,1-1.74.42,2.93,2.93,0,1,1-.1-5.86A2.56,2.56,0,0,1,22.56,36a.9.9,0,0,1-.9,1ZM21,35.83a.17.17,0,0,0,.16-.22,1.31,1.31,0,0,0-1.4-.86,1.52,1.52,0,0,0-1.46.84.17.17,0,0,0,.15.24Z"/><path class="logo" d="M27.81,39.25a.63.63,0,0,1-.62-.63V36.28c0-.73-.38-1.4-1.14-1.4a1.27,1.27,0,0,0-1.18,1.4v2.34a.63.63,0,0,1-.62.63h-.13a.63.63,0,0,1-.62-.63V34.31a.62.62,0,0,1,.62-.62h.13a.62.62,0,0,1,.62.63v0a1.59,1.59,0,0,1,1.46-.77,1.65,1.65,0,0,1,1.64,1,2,2,0,0,1,1.86-1c1.57,0,2.35,1,2.35,2.64v2.36a.63.63,0,0,1-.62.63h-.13a.62.62,0,0,1-.62-.63V36.26c0-.74-.31-1.35-1-1.35a1.26,1.26,0,0,0-1.2,1.37v2.34a.63.63,0,0,1-.62.63Z"/><path class="logo" d="M38.54,33.7h.12a.62.62,0,0,1,.62.62v4.3a.63.63,0,0,1-.62.63h-.12a.63.63,0,0,1-.62-.63v-.18a2.09,2.09,0,0,1-1.8,1,2.68,2.68,0,0,1-2.85-2.94,2.7,2.7,0,0,1,2.89-2.9,2,2,0,0,1,1.76.9v-.15A.62.62,0,0,1,38.54,33.7Zm-3.9,2.77a1.62,1.62,0,0,0,2,1.65,1.68,1.68,0,0,0-.09-3.31A1.6,1.6,0,0,0,34.64,36.47Z"/><path class="logo" d="M41.73,37a1.47,1.47,0,0,0,1.65,1.18,2.63,2.63,0,0,0,1.13-.26.61.61,0,0,1,.72.11h0a.62.62,0,0,1-.13,1,3.81,3.81,0,0,1-1.74.42,2.93,2.93,0,1,1-.1-5.86A2.55,2.55,0,0,1,46.06,36a.9.9,0,0,1-.9,1Zm2.81-1.13a.17.17,0,0,0,.16-.22,1.31,1.31,0,0,0-1.4-.86,1.52,1.52,0,0,0-1.46.84.17.17,0,0,0,.15.24Z"/></g></g></svg>