<svg xmlns="http://www.w3.org/2000/svg" viewBox="0 0 11.07 13.92">
<defs></defs>
<title>logo2-bold</title>
<g id="Capa_2" data-name="Capa 2"><g id="Capa_1-2" data-name="Capa 1">
<path class="path" d="M10.89,9l-.13.15L10.88,9l-.05-.05-.17-.12-.37-.29-.13-.13-.22-.57c-.09-.26-.19-.53-.31-.79s-.32-.67-.49-1C9.08,5.93,9,5.82,9,5.69L8.1,4,7.3,2.53l-.13-.24C6.82,1.63,6.45,1,6.08.28A.53.53,0,0,0,5.61,0a.57.57,0,0,0-.5.27v0c-.2.35-.39.7-.59,1.07L4,2.32C3.7,2.87,3.39,3.43,3.1,4c-.11.19-.21.39-.31.59s-.3.6-.47.88A17.06,17.06,0,0,0,1,8.27l-.37.25-.48.32A.49.49,0,0,0,0,9.36a.44.44,0,0,0,.25.28.43.43,0,0,0,.38,0l.08,0,.05,0a4.26,4.26,0,0,0,.33,1.76,2.57,2.57,0,0,0,.18.33l.11.19a3,3,0,0,0,.9,1.09,4.87,4.87,0,0,0,2.11.91,7.39,7.39,0,0,0,1.26.1c.29,0,.59,0,.9,0A4.74,4.74,0,0,0,8,13.46a3.43,3.43,0,0,0,1.32-1,5.57,5.57,0,0,0,.66-1,3.86,3.86,0,0,0,.41-1.75.44.44,0,0,0,.56-.09.48.48,0,0,0,.13-.33A.5.5,0,0,0,10.89,9ZM6.55,13l-.5,0A10.42,10.42,0,0,1,4.9,13l0-1.92H6.47ZM4.73,10.24a.6.6,0,0,0-.61.6l-.06,2a3.9,3.9,0,0,1-.93-.43,2.64,2.64,0,0,1-.85-.81,3.56,3.56,0,0,1-.56-1.38A3,3,0,0,1,1.79,8.9L2,8.72,3.71,7.51,4.49,7,5,6.65l.6-.43L7,7.28l.88.65c.49.35,1,.72,1.49,1.11a1.77,1.77,0,0,1,0,.2,2.18,2.18,0,0,1,.05.29v0a3.23,3.23,0,0,1,0,.44A3.35,3.35,0,0,1,9,11.39a3.41,3.41,0,0,1-.55.73,3.35,3.35,0,0,1-1.09.65l-.09-1.94a.61.61,0,0,0-.6-.59Zm3.85-3L7.66,6.6c-.44-.31-.87-.63-1.3-.95l-.26-.2L6,5.37a.57.57,0,0,0-.38-.2.58.58,0,0,0-.34.14l-.7.48-.15.1-1.07.74-.77.55-.2.15c.13-.31.27-.62.42-.92.25-.5.52-1,.79-1.5.1-.2.21-.4.32-.6s.36-.69.56-1L5.56,1.31l0-.05c.1.16.19.31.27.47l.33.61.21.41.29.55L7,3.92l.75,1.43L8,5.71l.24.45c.18.33.38.71.55,1.08a1.75,1.75,0,0,1,.11.24Z"/></g>
</g>
</svg>