<svg xmlns="http://www.w3.org/2000/svg" xmlns:xlink="http://www.w3.org/1999/xlink" viewBox="0 0 141.29 124.92"><defs><style>.cls-1{fill:#fff;}.cls-2{fill:#83a5d7;}.cls-3{fill:#ee7082;}.cls-4{fill:#fbc580;}.cls-5{fill:#f29480;}.cls-6{fill:#27214f;}.cls-7{fill:#e2d2e9;}.cls-8{fill:#384389;}.cls-9{fill:#f1e7f3;}.cls-10{fill:#f3bd90;}.cls-11{fill:#efb630;}.cls-12,.cls-14,.cls-15,.cls-19,.cls-22{fill:none;}.cls-12{stroke:#dd8320;stroke-width:0.42px;}.cls-12,.cls-14,.cls-15,.cls-22{stroke-miterlimit:10;}.cls-13{fill:#f7b8b2;}.cls-14{stroke:#2e2e2e;stroke-width:1.25px;}.cls-15{stroke:#2e2f67;stroke-width:0.44px;}.cls-16{fill:#292a60;}.cls-17{fill:#f6daba;}.cls-18{fill:#eea29c;}.cls-19{stroke:#322726;stroke-linecap:round;stroke-linejoin:round;stroke-width:0.33px;}.cls-20{fill:#191e22;}.cls-21{fill:#fca6b6;}.cls-22{stroke:#fd798d;stroke-width:0.24px;}.cls-23{fill:#5e9dff;}.cls-24{clip-path:url(#clip-path);}.cls-25{fill:#e6e6e6;}</style><clipPath id="clip-path"><path class="cls-1" d="M12.87,89.5,15,107.15a4.6,4.6,0,0,0,2.4,3.51h0a4.61,4.61,0,0,0,2.16.54h9a4.56,4.56,0,0,0,2.61-.82h0a4.6,4.6,0,0,0,1.95-3.26l2-17.62a.8.8,0,0,0-.79-.88H13.65A.79.79,0,0,0,12.87,89.5Z"/></clipPath></defs><title>cleaner-landing-image</title><g id="Capa_2" data-name="Capa 2"><g id="Capa_1-2" data-name="Capa 1"><path class="cls-2" d="M40.05,59.4a3.58,3.58,0,0,0-.47,4.49,2.78,2.78,0,0,0,4.08.56c2.93-2.6-.13-7.39-3.29-6.4a.62.62,0,0,0,.13,1.18,3.81,3.81,0,0,1,2.66.84,2.45,2.45,0,0,1,.16,3.07c-1.73,2.44-4.72-1.15-2.91-3.32.23-.28-.12-.68-.36-.42Z"/><path class="cls-3" d="M11.75,82.46C10,83.81,8.28,85.21,6.58,86.63a.66.66,0,0,0,.07,1.13c1.73,1.15,3.45,2.3,5.27,3.31a.61.61,0,0,0,.86-.43c.48-2.26,1.28-5.38.37-7.62-.23-.57-1.19-.64-1.29.07A27.82,27.82,0,0,0,12,86.5a17.61,17.61,0,0,1-.38,3.9l1-.33C10.86,88.81,9,87.71,7.22,86.59l.2,1c1.65-1.48,3.28-3,4.87-4.52.34-.32-.17-.92-.54-.63Z"/><path class="cls-4" d="M32.09,102.24A50.19,50.19,0,0,0,39.56,98a.79.79,0,0,0-.87-1.32,48.08,48.08,0,0,0-7.06,4.65c-.44.34-.12,1.23.46,1Z"/><path class="cls-5" d="M115.77,79.63a49.71,49.71,0,0,0,4.8-7.16.8.8,0,0,0-1.38-.8A48.85,48.85,0,0,0,114.94,79c-.25.5.44,1.15.83.65Z"/><path class="cls-6" d="M108.57,67.93l-.14-.13a1.62,1.62,0,1,0-2.29,2.29l.13.14a1.62,1.62,0,0,0,2.3,0,1.65,1.65,0,0,0,0-2.3Z"/><path class="cls-7" d="M0,113.58l141.29-.68-9.59,8S62.81,133.77,0,113.58Z"/><path class="cls-8" d="M24.17,62.76a4,4,0,0,1,1.77-.16c1.23.31,1.3,1.33,1.17,2.38a3.34,3.34,0,0,0,.65,2.89c1.2,1.33,3.75,1.27,4.32-.59.18-.6-.56-.88-1-.66-.59.3-1.16.85-1.88.49-1-.48-.65-1.54-.58-2.37a3.29,3.29,0,0,0-.73-2.45c-1-1.2-3.21-1.57-4.08,0a.37.37,0,0,0,.34.52Z"/><path class="cls-4" d="M118.91,81.26A49.24,49.24,0,0,0,127,78.39a.79.79,0,0,0-.62-1.46,48.87,48.87,0,0,0-7.78,3.31c-.5.26-.34,1.19.28,1Z"/><path class="cls-9" d="M113.13,58.92c.58,2.14,1.21,4.25,1.87,6.37a.67.67,0,0,0,1.08.37c1.72-1.17,3.44-2.32,5.06-3.61a.61.61,0,0,0-.06-1c-1.91-1.31-4.48-3.24-6.9-3.26-.62,0-1.05.86-.42,1.22a24.35,24.35,0,0,0,3.19,1.2,17.35,17.35,0,0,1,3.45,1.85c0-.35,0-.7.08-1.05-1.82,1.12-3.54,2.37-5.27,3.63l1,.2c-.74-2.09-1.49-4.16-2.31-6.22a.42.42,0,0,0-.79.26Z"/><polygon class="cls-10" points="60.99 92.69 68.87 86.52 65.31 82.45 57.28 89.31 60.88 93.07 60.99 92.69"/><path class="cls-8" d="M59,87.27s.91,4.52,4.32,4.65l1.31,11.57-9.87-15Z"/><polygon class="cls-1" points="63.36 104.32 53.49 89.34 54.75 88.51 64.62 103.49 63.36 104.32"/><path class="cls-11" d="M70,43.43s4.48,25.72,4,26.9L60.22,83.16l6.32,8.49L81.06,77.79c6.57-5.39.67-37.11.67-37.11Z"/><polygon class="cls-10" points="76.41 108.66 75.64 98.67 70.29 99.38 71.54 109.86 76.66 108.95 76.41 108.66"/><path class="cls-8" d="M70.79,107.31s4.26,1.75,6.26-1l10.36,5.33-17.94-.1Z"/><polygon class="cls-1" points="87.39 113.14 69.46 113.03 69.47 111.53 87.41 111.63 87.39 113.14"/><path class="cls-11" d="M68.68,41.45a27.69,27.69,0,0,0-4.62,16.86l4.07,45.21,10.4-.66L76.69,42Z"/><polyline class="cls-12" points="77.86 80.81 77.21 60.94 80.5 57.37"/><line class="cls-12" x1="65.82" y1="77.94" x2="67.01" y2="91.09"/><path class="cls-13" d="M85.43,43h0c-1.25,1.42-.21,3.59.82,4.54l13,8.68,2.59-2.83L89.67,41.65C88.45,40.78,86.43,41.87,85.43,43Z"/><path class="cls-13" d="M99.39,56.5a3.59,3.59,0,1,1,5.08.17A3.59,3.59,0,0,1,99.39,56.5Z"/><line class="cls-14" x1="102.26" y1="101.73" x2="102.26" y2="46.01"/><polygon class="cls-11" points="95.11 101.84 97.33 113.28 111.27 113.28 108.36 101.84 95.11 101.84"/><line class="cls-12" x1="99.29" y1="113.28" x2="96.75" y2="102.29"/><line class="cls-12" x1="101.38" y1="113.28" x2="98.83" y2="102.29"/><line class="cls-12" x1="103.46" y1="113.28" x2="100.91" y2="102.29"/><line class="cls-12" x1="105.54" y1="113.28" x2="103" y2="102.29"/><line class="cls-12" x1="107.63" y1="113.28" x2="105.08" y2="102.29"/><line class="cls-12" x1="109.71" y1="113.28" x2="107.17" y2="102.29"/><path class="cls-8" d="M96.76,100.34h10.9a2.38,2.38,0,0,1,2.38,2.38v.62a0,0,0,0,1,0,0H94.37a0,0,0,0,1,0,0v-.62A2.38,2.38,0,0,1,96.76,100.34Z"/><path class="cls-13" d="M99.87,51.17a3.44,3.44,0,0,1,4.57,1s-.1,2.81-3.5,1.33Z"/><path class="cls-13" d="M89.17,33.14l1.9,11.49a2.84,2.84,0,0,1-2.23,3.63h0A3.19,3.19,0,0,1,85.24,46L82.06,34.7Z"/><path class="cls-8" d="M90.06,34.07l-1.25-6.31a4.64,4.64,0,0,0-5.14-3.71h0a4.43,4.43,0,0,0-3.82,5.21l1.38,7Z"/><polygon class="cls-8" points="77.83 20.49 68.6 21.92 65.44 34.25 63.71 53.13 84.27 55.17 87.62 29.24 87.11 24.99 81.83 21.44 77.83 20.49"/><line class="cls-15" x1="86.9" y1="34.86" x2="87.54" y2="29.92"/><line class="cls-14" x1="74.53" y1="55.17" x2="92.67" y2="107.69"/><polygon class="cls-16" points="91.2 106.85 91.2 113.28 97.33 113.28 96.08 106.85 91.2 106.85"/><polygon class="cls-8" points="87.41 106.85 87.41 113.28 97.33 113.28 97 111.57 92.44 106.85 87.41 106.85"/><path class="cls-13" d="M70.05,33.26l-6,10a3.18,3.18,0,0,1-4.4,1.17h0a3.2,3.2,0,0,1-1.26-4.06l4.95-10.64Z"/><path class="cls-8" d="M69.44,34.25l3.49-5.43a4.64,4.64,0,0,0-1.48-6.17h0a4.42,4.42,0,0,0-6.29,1.47l-3.53,6.23Z"/><line class="cls-15" x1="69.44" y1="34.25" x2="72.93" y2="28.82"/><path class="cls-13" d="M59,39.68h0a2.94,2.94,0,0,0,.38,4.59l11,12.51,3.44-2.51L64.14,39.6A4.84,4.84,0,0,0,59,39.68Z"/><path class="cls-13" d="M69.36,58.71a3.59,3.59,0,1,1,5.08.18A3.59,3.59,0,0,1,69.36,58.71Z"/><path class="cls-13" d="M75.58,56.3s1.47-.72.29-2.19-3.51-2.72-6.33-.47Z"/><path class="cls-17" d="M120.39,107.34a2.43,2.43,0,1,1-2.43-2.42A2.42,2.42,0,0,1,120.39,107.34Z"/><path class="cls-17" d="M115.58,100.05a1.21,1.21,0,1,1-.32-1.68A1.21,1.21,0,0,1,115.58,100.05Z"/><path class="cls-17" d="M124.18,101.46a.52.52,0,0,1-.71.14.51.51,0,1,1,.71-.14Z"/><path class="cls-17" d="M126.69,108.3a.53.53,0,0,1-.72.14.51.51,0,0,1-.13-.71.5.5,0,0,1,.71-.14A.52.52,0,0,1,126.69,108.3Z"/><path class="cls-17" d="M131.27,94.39a.5.5,0,0,1-.71.14.51.51,0,1,1,.71-.14Z"/><path class="cls-17" d="M136.18,105.11a1.06,1.06,0,0,1-1.75-1.19,1,1,0,0,1,1.46-.28A1.06,1.06,0,0,1,136.18,105.11Z"/><path class="cls-17" d="M120.81,89.31a.51.51,0,1,1-.14-.71A.51.51,0,0,1,120.81,89.31Z"/><path class="cls-18" d="M85.19,11.51a2,2,0,0,0,1.54,2.43,2.06,2.06,0,1,0-1.54-2.43Z"/><path class="cls-13" d="M83.21,16.71l-.68,4.88a2.41,2.41,0,0,1-3,2.24h0c-1.4-.21-2.83-1.1-2.56-2.6l1.43-7.63Z"/><path class="cls-18" d="M82.7,20.49l-4.43-4.34c-.19-1.46,5,.06,5,.06Z"/><path class="cls-13" d="M81.55,17.92h0A5.19,5.19,0,0,0,87.36,14l.83-4.89a5.46,5.46,0,0,0-4.13-6.33h0C81.17,2.19,77.82,4,77.2,7l-.6,3.82A6.19,6.19,0,0,0,81.55,17.92Z"/><polyline class="cls-19" points="84.54 13.04 84.5 14.1 83.81 14.03"/><path class="cls-20" d="M82,9.72s1.16.07,1.1.55c0,0,0,.32-1,.25s-1.25-.19-1.3-.5S81.45,9.65,82,9.72Z"/><path class="cls-20" d="M86.58,10.39s-.93-.23-1.06.21c0,0-.09.3.72.48s1.1.11,1.21-.12S87,10.46,86.58,10.39Z"/><path class="cls-20" d="M85.63,12.29a.49.49,0,1,0,1,.17.51.51,0,0,0-.4-.58A.5.5,0,0,0,85.63,12.29Z"/><path class="cls-20" d="M81.46,11.57a.48.48,0,0,0,.39.57.49.49,0,0,0,.56-.41.48.48,0,1,0-1-.16Z"/><path class="cls-1" d="M84.09,14.94l-2.46-.56s-.25.95,1,1.21S84.09,14.94,84.09,14.94Z"/><polygon class="cls-20" points="76.7 6.83 76.52 9.16 77.99 10.76 80.07 6.44 76.7 6.83"/><path class="cls-13" d="M74.08,10.16a2,2,0,0,0,1.52,2.41A2,2,0,0,0,78,11a2,2,0,1,0-3.87-.82Z"/><path class="cls-19" d="M76.58,11.19s.3-1.45-1.09-1.5"/><path class="cls-13" d="M77.83,20.49l-2.43.38s1.34,5.57,9.75,2.8L81,20.76Z"/><polygon class="cls-20" points="87.88 11.18 88.71 8.96 88.06 7.28 87.88 11.18"/><path class="cls-21" d="M76.73,8c1.83-.26,5.69-.45,11.72,1a.92.92,0,0,0,1.16-.85V6A.89.89,0,0,0,89,5.15a26,26,0,0,0-12.22-1,.89.89,0,0,0-.76.74L75.68,7A.9.9,0,0,0,76.73,8Z"/><path class="cls-21" d="M76.79,5.42s-.15-5.18,6-5.37,6.43,5.71,6.43,5.71Z"/><path class="cls-22" d="M81.93,8a11,11,0,0,0-.1-4.16L83.23.17S79.5.68,78.94,3.89a8.17,8.17,0,0,0-.21,4"/><path class="cls-22" d="M85.41,8.39a6.73,6.73,0,0,0,.23-4.19s-.16-2.94-2.41-4A6.24,6.24,0,0,1,88.38,5S89.3,6.4,88.45,9"/><path class="cls-22" d="M89,5.15S84.42,3.05,77,4.1"/><path class="cls-8" d="M23.55,89S18.07,76.17,12.87,71.25c0,0,2.9,13.65,6.88,21.17"/><path class="cls-8" d="M23.13,89.05s8-13.43,13.18-18.34c0,0-4.45,13.13-7.63,21.36"/><path class="cls-23" d="M21.48,91.3s-3.42-15.62,2.83-27.16c0,0,5.1,6.28,2.23,27.16"/><path class="cls-23" d="M21.24,89.5s-1.76-4.59-15-9c0,0,1.74,5,11.73,10.8"/><path class="cls-23" d="M27.29,89.22A20.22,20.22,0,0,1,42.13,80.5s-3.42,4.77-11.32,10.8"/><rect class="cls-8" x="18.55" y="108.03" width="11.05" height="5.12"/><path class="cls-1" d="M12.87,89.5,15,107.15a4.6,4.6,0,0,0,2.4,3.51h0a4.61,4.61,0,0,0,2.16.54h9a4.56,4.56,0,0,0,2.61-.82h0a4.6,4.6,0,0,0,1.95-3.26l2-17.62a.8.8,0,0,0-.79-.88H13.65A.79.79,0,0,0,12.87,89.5Z"/><g class="cls-24"><rect class="cls-25" x="11.7" y="87.75" width="24.12" height="6.88"/></g><path class="cls-8" d="M11.41,104.09a50.52,50.52,0,0,0,8.61,0,.78.78,0,0,0-.1-1.56,49.77,49.77,0,0,0-8.44.51c-.55.07-.71,1-.07,1Z"/></g></g></svg>