<?xml version="1.0" encoding="utf-8"?>
<!-- Generator: Adobe Illustrator 23.1.1, SVG Export Plug-In . SVG Version: 6.00 Build 0)  -->
<svg version="1.1" id="Capa_1" xmlns="http://www.w3.org/2000/svg" xmlns:xlink="http://www.w3.org/1999/xlink" x="0px" y="0px"
	 viewBox="0 0 41 41" style="enable-background:new 0 0 41 41;" xml:space="preserve">
<style type="text/css">
	.st0{clip-path:url(#SVGID_2_);}
	.st1{fill:#784759;}
	.st2{fill:#FFFFFF;}
	.st3{fill:#EA948F;}
	.st4{fill:#EFEFEF;}
	.st5{fill:#F9B8B2;}
	.st6{fill:#FCA6B6;}
	.st7{clip-path:url(#SVGID_4_);}
	.st8{fill:#FD798D;}
	.st9{fill:none;stroke:#DCDCDC;stroke-width:0.3881;stroke-miterlimit:10;}
	.st10{fill:none;stroke:#32282C;stroke-width:0.2717;stroke-linecap:round;stroke-linejoin:round;}
	.st11{fill:#32282C;}
</style>
<title>cleaner-avatar</title>
<g>
	<g id="Capa_1-2">
		<g>
			<defs>
				<rect id="SVGID_1_" x="0" width="41" height="41"/>
			</defs>
			<clipPath id="SVGID_2_">
				<use xlink:href="#SVGID_1_"  style="overflow:visible;"/>
			</clipPath>
			<g class="st0">
				<path class="st1" d="M12.8,30.9l-5.8,9.8c-0.9,1.4-0.5,3.4,1,4.3c0,0,0,0,0.1,0l0,0c1.4,0.8,3.1,0.5,4.1-0.8l6.9-9.2L12.8,30.9z
					"/>
				<path class="st2" d="M12.2,31.9l3.1-5.5c1.3-2,3.9-2.7,6-1.6l0,0c2.1,1.1,2.9,3.7,1.8,5.8c0,0.1-0.1,0.2-0.1,0.2l-3.8,5.9
					L12.2,31.9z"/>
				<path class="st3" d="M10.5,45.1L10.5,45.1C9,45.7,7.3,45,6.7,43.5c-0.1-0.2-0.1-0.4-0.2-0.6L3,29.5L6.1,27l6.7,14.7
					C13.2,43.1,11.9,44.6,10.5,45.1z"/>
				<path class="st3" d="M1.4,30.5c1.5,1.4,3.8,1.2,5.2-0.2c1.4-1.5,1.2-3.8-0.2-5.2s-3.8-1.2-5.2,0.2c0,0,0,0,0,0
					C-0.2,26.9-0.1,29.2,1.4,30.5C1.4,30.5,1.4,30.5,1.4,30.5z"/>
				<circle class="st2" cx="7.4" cy="20.7" r="8.8"/>
				<circle class="st4" cx="7.4" cy="20.7" r="5.3"/>
				<polygon class="st2" points="20.7,23.4 17.1,24.8 17.6,51.5 38.3,51.6 39.1,29.4 37.5,24.3 32.6,22.6 				"/>
				<path class="st5" d="M25.4,21.7l-4.7,1.7c0,0,0.2,3.7,6.1,3.8c1.6,0.1,3.2-0.6,4.4-1.7c0.7-0.8,1.1-1.8,1.4-2.8l-4.3-1.5
					L25.4,21.7z"/>
				<path class="st6" d="M14.2,25.1c-0.7-0.8-1.8-1.1-2.8-0.9C10,24.7,8.5,25.8,8.6,29C8.9,34.5,9,41.9,9,41.9l1.8,0.4l0.3,2.1
					l3.4,2l5.2-9.4C19.7,37,17.5,28.9,14.2,25.1z"/>
				<g>
					<defs>
						<path id="SVGID_3_" d="M14.2,25.1c-0.7-0.8-1.8-1.1-2.8-0.9C10,24.7,8.5,25.8,8.6,29C8.9,34.5,9,41.9,9,41.9l1.8,0.4l0.3,2.1
							l3.4,2l5.2-9.4C19.7,37,17.5,28.9,14.2,25.1z"/>
					</defs>
					<clipPath id="SVGID_4_">
						<use xlink:href="#SVGID_3_"  style="overflow:visible;"/>
					</clipPath>
					<g class="st7">
						<polygon class="st8" points="8.6,24.1 10.9,42.3 7.6,43 						"/>
					</g>
				</g>
				<path class="st5" d="M28.3,43.9L28.3,43.9c-1.1,1.2-2.9,1.2-4.1,0.2c-0.1-0.1-0.3-0.3-0.4-0.4L13.7,33l2.4-2.9l12.2,8.3
					C29.2,39.5,29.3,42.8,28.3,43.9z"/>
				<path class="st5" d="M12.9,34.3c1.9,0.5,4-0.6,4.5-2.5c0.5-1.9-0.6-4-2.5-4.5c-1.9-0.5-4,0.6-4.5,2.5
					C9.8,31.7,11,33.7,12.9,34.3C12.9,34.3,12.9,34.3,12.9,34.3z"/>
				<path class="st5" d="M12.2,27.6c0,0,0-1.7,1.8-1.3c1.9,0.4,4.1,1.9,3.4,5.5L12.2,27.6z"/>
				<path class="st5" d="M30.2,30.7l-6.3,9.5c-1,1.4-0.7,3.3,0.7,4.3c0,0,0.1,0,0.1,0.1l0,0c1.3,0.9,3.1,0.6,4.1-0.6l7.3-8.7
					L30.2,30.7z"/>
				<path class="st2" d="M29.1,31.4l3.4-5.3c1.4-1.9,4-2.5,6.1-1.2l0,0c2,1.2,2.7,3.9,1.4,5.9c0,0.1-0.1,0.2-0.1,0.2l-3.2,6.4
					L29.1,31.4z"/>
				<polyline class="st9" points="35.3,36.2 36.4,37.1 39,32.7 				"/>
				<polyline class="st9" points="32.5,26 29,31.5 29.4,31.9 				"/>
				<path class="st3" d="M23.3,13.2c0,1.1-0.8,1.9-1.8,2c-1.1,0.1-2-0.8-2.1-1.8s0.8-2,1.8-2.1C22.3,11.3,23.2,12.1,23.3,13.2
					C23.3,13.2,23.3,13.2,23.3,13.2z"/>
				<path class="st5" d="M24.4,17.6l-0.2,4.6c-0.2,1.2,0.7,2.4,1.9,2.6c0.2,0,0.3,0,0.5,0l0,0c1.3,0,2.8-0.6,2.8-2l-0.1-7.3
					L24.4,17.6z"/>
				<path class="st5" d="M25.7,19L25.7,19c-2.5-0.1-4.6-2-4.7-4.6l0-4.7c0-2.7,2.1-5,4.9-5.2l0,0c2.9-0.1,5.5,2.1,5.7,5l-0.1,3.6
					C31.5,16.4,28.9,19,25.7,19z"/>
				<polyline class="st10" points="24.3,12.9 24.3,14.1 25.2,14.1 				"/>
				<path class="st11" d="M23.2,12.2c0,0.3-0.2,0.4-0.5,0.4c-0.3,0-0.4-0.2-0.4-0.5c0-0.2,0.2-0.4,0.5-0.4
					C23,11.7,23.2,11.9,23.2,12.2z"/>
				<path class="st11" d="M27.5,12.2c0,0.3-0.2,0.4-0.5,0.4s-0.4-0.2-0.4-0.5c0-0.2,0.2-0.4,0.5-0.4C27.3,11.7,27.5,11.9,27.5,12.2z
					"/>
				<path class="st11" d="M23.7,10.1c0,0,0.1,0.5-0.5,0.4c-0.3,0-0.7,0-1,0c-0.2,0-0.3,0-0.4-0.2l0,0c-0.1-0.1,0-0.2,0.1-0.3
					c0.3-0.3,0.7-0.4,1.1-0.4C23.6,9.7,23.7,10.1,23.7,10.1z"/>
				<path class="st11" d="M26.2,10.1c0,0-0.1,0.5,0.6,0.4c0.4,0,0.7,0,1.1,0c0.2,0,0.3,0,0.4-0.2l0,0c0.1-0.1,0-0.2,0-0.3
					c-0.3-0.3-0.8-0.4-1.2-0.4C26.3,9.7,26.2,10.1,26.2,10.1z"/>
				<path class="st5" d="M33.8,13.2c0,1-0.8,1.9-1.9,1.9c-1,0-1.9-0.8-1.9-1.9c0-1,0.8-1.8,1.8-1.9C32.9,11.3,33.7,12.1,33.8,13.2
					C33.8,13.2,33.8,13.2,33.8,13.2z"/>
				<path class="st10" d="M31.1,13.7c0,0,0.6-1.6,1.8-1.2"/>
				<path class="st11" d="M21,13.4c0,0,0.1,1.4,1,1.7c0.9,0.3,1.2-0.5,2.4-0.6c1.2-0.1,2.5,0.2,3.6,0.8c1.2,0.6,2.7-2.7,3.2-3.7
					c0.1-0.2,0.3-0.1,0.3-0.1l-0.3,3.3c-0.4,2.8-3,4.8-5.8,4.5C20.1,19.2,21,13.4,21,13.4z"/>
				<path class="st6" d="M21,8.8h10.7V8.4c-0.1-2.9-2.5-5.2-5.4-5.1c0,0,0,0,0,0l0,0C23.4,3.2,21,5.5,21,8.4L21,8.8z"/>
				<path class="st8" d="M31.7,8.5c0,0-5.8-3.2-11.4-2.5S21,8.8,21,8.8h10.7L31.7,8.5z"/>
				<polygon class="st11" points="31.7,8.8 31.5,11.6 31.3,12.6 30.5,8.8 				"/>
				<polygon class="st11" points="21,11.3 21,8.8 21.5,8.8 				"/>
				<path class="st5" d="M26.5,15.7c0,0.2-0.8,0.5-1.6,0.5c-0.8,0-1.6-0.3-1.6-0.5s0.8-0.4,1.6-0.4S26.5,15.5,26.5,15.7z"/>
			</g>
		</g>
	</g>
</g>
</svg>
