<svg xmlns="http://www.w3.org/2000/svg" viewBox="0 0 133.48 110.75"><defs><style>.clsc-1{fill:#83a5d7;}.clsc-2{fill:#ee7082;}.clsc-3{fill:#fbc580;}.clsc-4{fill:#f29480;}.clsc-5{fill:#27214f;}.clsc-6{fill:#fd798d;}.clsc-7{fill:#f5aba8;}.clsc-8{fill:#203460;}.clsc-9{fill:#282250;}.clsc-10{fill:#384389;}.clsc-11{fill:#fff;opacity:0.41;}.clsc-12{fill:#e2d2e9;}.clsc-13{fill:#f8b580;}.clsc-14{fill:#f1e7f3;}</style></defs><title>user-landing-image</title><g id="Capa_2" data-name="Capa 2"><g id="Capa_1-2" data-name="Capa 1"><path class="clsc-1" d="M50.64,30.06c-1.57,1.51-2.17,3.86-.67,5.67a4.39,4.39,0,0,0,5.9.71c4.26-3.29-.18-9.35-4.77-8.09a.76.76,0,0,0,.2,1.49,6.06,6.06,0,0,1,3.85,1.07,2.79,2.79,0,0,1,.24,3.88c-2.51,3.08-6.85-1.45-4.22-4.2a.38.38,0,0,0-.53-.53Z"/><path class="clsc-2" d="M94.46,35.26c.57,2.13,1.21,4.25,1.87,6.37a.68.68,0,0,0,1.08.37c1.71-1.17,3.43-2.32,5.06-3.61a.62.62,0,0,0-.06-1c-1.91-1.3-4.48-3.24-6.9-3.25-.62,0-1.05.86-.43,1.22a25.48,25.48,0,0,0,3.19,1.2,17.16,17.16,0,0,1,3.46,1.85c0-.35,0-.71.07-1.06C100,38.5,98.27,39.76,96.54,41l1,.21c-.74-2.09-1.5-4.17-2.31-6.22-.18-.44-.92-.2-.79.26Z"/><path class="clsc-3" d="M106.53,46.59A49.82,49.82,0,0,0,114,42.3a.79.79,0,0,0-.88-1.32,48.52,48.52,0,0,0-7.05,4.65c-.44.34-.12,1.23.46,1Z"/><path class="clsc-4" d="M12.38,54.4a50.57,50.57,0,0,0-2.24-8.32.8.8,0,0,0-1.51.51,48.1,48.1,0,0,0,2.71,8c.22.51,1.16.43,1-.2Z"/><path class="clsc-5" d="M20.42,29.76l-.14-.12A1.62,1.62,0,1,0,18,31.92l.13.15a1.64,1.64,0,0,0,2.3,0,1.66,1.66,0,0,0,0-2.31Z"/><path class="clsc-6" d="M88.55,101.48s-26.87,6.25-37.66-4.54l3.86-25.77c1.18-7.41.48-21.67,6.15-26.72A9.86,9.86,0,0,1,63.06,43c4-1.92,11.06-3,17.86-3,8.25,0,16.75,6.22,18.92,14.19L90.9,75.08Z"/><path class="clsc-7" d="M85.89,57.39S97.92,80.57,92,81.8c-19.66,4.06-31.07,7.39-31.07,7.39l-1,7.64c.29,1.15,39.77.15,44.45-5.15,3.3-3.75,7.69-12.4-1.65-31.13l-2.84-6.37Z"/><path class="clsc-7" d="M63.29,45.45l-30,11.6-.94-15.72L26,38.85s-9.3,25.23,2.34,29.93,24.75-4,24.75-4Z"/><path class="clsc-6" d="M67,41.59C56.54,44.93,50.3,48.83,35.57,55l7.56,16.86,13-4.18Z"/><polyline class="clsc-6" points="84.09 54.18 91.69 71.84 108.84 68.71 97.28 48.82 83.61 54.18"/><path class="clsc-8" d="M75.12,66.22c3.65-.2,7.26,0,10.9,0,.32,0,.3-.45,0-.48a53.66,53.66,0,0,0-10.9.05c-.27,0-.28.44,0,.43Z"/><path class="clsc-8" d="M91.47,45.73c-12.33,1.12-3.9,19.31-.73,24.81a.27.27,0,0,0,.47-.27c-3.14-5.57-11.55-22.5.3-24.24.17,0,.14-.31,0-.3Z"/><path class="clsc-8" d="M57.28,56.13a102.6,102.6,0,0,0-2.92,18.6c0,.25.42.32.46.06.88-6.2,1.77-12.39,2.77-18.57,0-.2-.26-.29-.31-.09Z"/><path class="clsc-5" d="M86.16,22.53l.56-7.82A3.93,3.93,0,0,0,89,9.55a5,5,0,0,0-5.25-2.76c1.33-.91,1.23-3.07.14-4.25A6.26,6.26,0,0,0,79.5.91,32.14,32.14,0,0,1,74.69.75C73.29.49,71.92-.15,70.5,0s-2.76,1.77-2,3c-2-.3-4.24-.57-6,.41s-2.72,3.78-1.17,5.13a2.24,2.24,0,0,0-.7,3,3.63,3.63,0,0,0,2.91,1.6,10.76,10.76,0,0,0,3.41-.5"/><path class="clsc-7" d="M85.82,17.46l-.41,5.42s4.61.62,3.3,4.82-4.47,2.36-4.47,2.36-.78,10.76-11.81,7.35c-8.77-2.72-8.23-14.08-7.12-23.76A6.49,6.49,0,0,1,73,8l6.62,1.29A7.67,7.67,0,0,1,85.82,17.46Z"/><path class="clsc-7" d="M85.41,27.37l-3,15.84a6.35,6.35,0,0,1-7.72,5h0a6.36,6.36,0,0,1-4.78-7.29l1.62-9.08Z"/><path class="clsc-9" d="M73.22,27.55s0,.22-.27.38-.88-.18-1-.71a5,5,0,0,1-.12-1.79c0-.68.07-1.38.11-2.11a27.22,27.22,0,0,1,.6-5.41,29.73,29.73,0,0,1-.08,5.44c-.06.73-.11,1.43-.16,2.11a5.65,5.65,0,0,0,0,1.65c.08.44.4.66.61.62S73.18,27.52,73.22,27.55Z"/><path class="clsc-9" d="M69.64,36.3a14.88,14.88,0,0,1,1.48.7,9.74,9.74,0,0,0,3.74.85,9.61,9.61,0,0,0,3.77-.69,13.68,13.68,0,0,1,1.51-.64s-.43.5-1.35,1A8.43,8.43,0,0,1,71,37.33,3.48,3.48,0,0,1,69.64,36.3Z"/><path class="clsc-9" d="M71.8,29.77c.06-.05.3.18.76.39a2.71,2.71,0,0,0,1.88.14,2.65,2.65,0,0,0,1.44-1.21c.26-.43.32-.77.4-.76s.14.37-.06.92a2.57,2.57,0,0,1-3.83,1.23C71.9,30.15,71.75,29.81,71.8,29.77Z"/><path class="clsc-9" d="M85.76,28.22c0-.08.27-.12.57-.3a.77.77,0,0,0,.34-.43c0-.2,0-.38-.16-.43a.25.25,0,0,0-.28,0l-.44-.23c.41-.86.79-1.45.89-1.4s-.08.72-.43,1.6l-.45-.23a.72.72,0,0,1,.89-.27.75.75,0,0,1,.46.49.94.94,0,0,1,0,.58,1,1,0,0,1-.63.61C86,28.4,85.76,28.28,85.76,28.22Z"/><path class="clsc-9" d="M77.27,17.55c0-.13.52-.43,1.25-.24s1.08.74,1,.82-.53-.17-1.1-.31S77.32,17.69,77.27,17.55Z"/><path class="clsc-9" d="M67.74,16c-.06-.12.51-.5,1.31-.43s1.3.54,1.21.65-.6-.08-1.26-.13S67.8,16.18,67.74,16Z"/><path class="clsc-5" d="M85.41,22.88c-3.07-3-4-8-4.81-12.22A10.76,10.76,0,0,1,70.54,12,16,16,0,0,1,67,15.1a1.57,1.57,0,0,1-1.26.35c-.52-.15-.75-.74-.87-1.27A8.94,8.94,0,0,1,65,9.08,6.13,6.13,0,0,1,68.43,5.4a9,9,0,0,1,5.44.09,30.09,30.09,0,0,1,7.69,3.18c2.35,1.38,4.62,3.2,5.61,5.74s1,7.47-1.41,8.76"/><path class="clsc-9" d="M78.1,22c-.14,0-.23-.39-.2-.85s.18-.82.32-.81.24.39.2.85S78.25,22,78.1,22Z"/><path class="clsc-9" d="M69.25,20.83c-.14,0-.23-.39-.2-.85s.18-.82.32-.81.23.39.2.85S69.4,20.84,69.25,20.83Z"/><path class="clsc-7" d="M25.64,39.37s1.33-8.18,2.92-8.09,4.77,0,4.77,0,.27-7.77,1.15-6.54,1.16,11.7-2.25,16.72Z"/><path class="clsc-7" d="M60.88,89.19s-14.26,2.5-14,4.35a13.37,13.37,0,0,0,1.28,3.71L60.88,97Z"/><polygon class="clsc-10" points="76.36 97.7 76.25 95.73 46.88 93.93 37.03 67.58 4.79 69.35 15.79 97.85 76.36 97.7"/><path class="clsc-11" d="M22.56,81.9a2.39,2.39,0,1,0,2.26-2.52A2.39,2.39,0,0,0,22.56,81.9Z"/><path class="clsc-11" d="M21.61,82a3.34,3.34,0,1,0,3.16-3.52A3.34,3.34,0,0,0,21.61,82Z"/><path class="clsc-12" d="M0,97.29l126.09-1.58,7.39,3.88S36.68,126.16,0,97.29Z"/><path class="clsc-13" d="M19.52,31.05c2.06-.71,4.2-1.33,6.21-2.18.15-.06,0-.3-.11-.26-2.1.57-4.14,1.4-6.19,2.11-.21.07-.12.4.09.33Z"/><path class="clsc-13" d="M22,24.46A36.58,36.58,0,0,0,26,24.34.18.18,0,0,0,26,24a34.21,34.21,0,0,0-3.92.1c-.25,0-.25.39,0,.38Z"/><path class="clsc-13" d="M28.25,22.05a38.28,38.28,0,0,0-4.51-4.13c-.26-.17-.47.19-.3.39a37,37,0,0,0,4.53,4c.19.16.46-.1.28-.28Z"/><path class="clsc-13" d="M31.52,20A2.54,2.54,0,0,0,31,18.74a5.92,5.92,0,0,0-.76-1.29.23.23,0,0,0-.39.23,6.18,6.18,0,0,0,.73,1.3c.21.36.4.86.79,1.05a.09.09,0,0,0,.14-.08Z"/><path class="clsc-13" d="M34.59,19.06a55.47,55.47,0,0,0-.1-6.45.23.23,0,0,0-.45,0,55.6,55.6,0,0,0,.14,6.45.21.21,0,0,0,.41,0Z"/><path class="clsc-13" d="M36.89,20.07a17.54,17.54,0,0,0,1.36-2.43.23.23,0,0,0-.4-.24,19.38,19.38,0,0,0-1.28,2.48.19.19,0,0,0,.32.19Z"/><path class="clsc-13" d="M38.7,21.81c1-.48,2-1.09,2.95-1.67a17.46,17.46,0,0,0,2.56-1.61c.17-.14,0-.45-.21-.37a18,18,0,0,0-2.62,1.52c-1,.59-2,1.16-2.86,1.83a.17.17,0,0,0,.18.3Z"/><path class="clsc-13" d="M39.93,24.58a2.88,2.88,0,0,0,2.52-.52.25.25,0,0,0-.24-.41c-.36.07-.69.28-1.05.37a6.58,6.58,0,0,1-1.18.17c-.2,0-.28.33,0,.39Z"/><path class="clsc-13" d="M40.23,28.4a73,73,0,0,0,8.36,2,.29.29,0,0,0,.15-.56A70.05,70.05,0,0,0,40.35,28a.22.22,0,0,0-.12.43Z"/><path class="clsc-10" d="M28.67,52.48a5.8,5.8,0,0,1,.59-2.43c.95-1.5,2.31-1.13,3.63-.46A4.47,4.47,0,0,0,37,50c2.27-1,3.34-4.41,1.17-6-.71-.53-1.4.33-1.3,1,.13.92.59,1.93-.21,2.73-1,1.06-2.29.17-3.35-.31a4.36,4.36,0,0,0-3.52-.15c-2,.82-3.5,3.56-1.89,5.42a.49.49,0,0,0,.82-.22Z"/><path class="clsc-3" d="M58.56,54.14a50.62,50.62,0,0,0,8.13-2.87.8.8,0,0,0-.63-1.46,48.35,48.35,0,0,0-7.78,3.31c-.49.25-.33,1.19.28,1Z"/><path class="clsc-14" d="M45,57c.58,2.14,1.21,4.26,1.87,6.37a.67.67,0,0,0,1.08.38c1.72-1.17,3.44-2.32,5.07-3.61a.62.62,0,0,0-.07-1c-1.9-1.31-4.48-3.24-6.9-3.25-.62,0-1,.86-.42,1.22a25.87,25.87,0,0,0,3.19,1.2,17.71,17.71,0,0,1,3.46,1.85c0-.35,0-.71.07-1.06-1.82,1.12-3.54,2.38-5.27,3.63l1,.21c-.73-2.09-1.49-4.17-2.31-6.23-.17-.43-.91-.19-.79.26Z"/><path class="clsc-10" d="M48.76,78.4a50.52,50.52,0,0,0,8.61,0,.78.78,0,0,0-.09-1.55,49.64,49.64,0,0,0-8.44.5c-.55.07-.72,1-.08,1Z"/></g></g></svg>