<?xml version="1.0" encoding="utf-8"?>
<!-- Generator: Adobe Illustrator 23.1.1, SVG Export Plug-In . SVG Version: 6.00 Build 0)  -->
<svg version="1.1" id="Capa_1" xmlns="http://www.w3.org/2000/svg" xmlns:xlink="http://www.w3.org/1999/xlink" x="0px" y="0px"
	 viewBox="0 0 41 41" style="enable-background:new 0 0 41 41;" xml:space="preserve">
<style type="text/css">
	.ct0{clip-path:url(#SVGID_2_);}
	.ct1{fill:#89556B;}
	.ct2{fill:#FCA6B6;}
	.ct3{fill:none;stroke:#EE517E;stroke-width:0.46;stroke-miterlimit:10;}
	.ct4{fill:#452C14;}
	.ct5{fill:#FD798D;}
	.ct6{fill:#78455C;}
	.ct7{fill:none;stroke:#1F120A;stroke-width:0.38;stroke-linecap:round;stroke-linejoin:round;}
	.ct8{fill:#1F120A;}
	.ct9{fill:none;stroke:#1F120A;stroke-width:0.35;stroke-linecap:round;stroke-linejoin:round;}
</style>
<title>user-avatar</title>
<g>
	<g id="Capa_1-2">
		<g>
			<defs>
				<rect id="SVGID_1_" x="-2.7" y="-2.7" width="43.7" height="43.7"/>
			</defs>
			<clipPath id="SVGID_2_">
				<use xlink:href="#SVGID_1_"  style="overflow:visible;"/>
			</clipPath>
			<g class="ct0">
				<path class="ct1" d="M34.3,33.8l8.2,10.1c1.3,1.5,1.5,3.4,0,4.6l0,0c-1.4,1.2-3.4,1.1-4.7-0.2l-9.4-9.2L34.3,33.8z"/>
				<path class="ct2" d="M37.5,35.2l-4.4-5.7c-1.8-2-4.8-2.4-7-0.8l0,0c-2.2,1.7-2.6,4.8-1,7c0,0.1,0.1,0.1,0.1,0.2l4.9,6.4
					L37.5,35.2z"/>
				<path class="ct2" d="M7.5,37.5l0.2-8.8l3.7-1.6l14.1,0.3l1.8-0.3l2.6,0.5c0.5,0.1,0.9,0.6,0.8,1.2c0,0.1-0.1,0.2-0.1,0.3
					l-1.2,2.3c0.4,3.1,0.8,7.9-1.1,11.4l1,10.7c0,0-12.3,13.2-21.7,4.5L7.5,37.5z"/>
				<path class="ct3" d="M28.6,42.3c1.3-2.9,1.6-6.1,1-9.2"/>
				<path class="ct4" d="M9,6.2c0.6,2.4,3.1,3.9,5.5,3.3s3.9-3.1,3.3-5.5S14.7,0,12.3,0.6c0,0,0,0,0,0C9.8,1.2,8.4,3.7,9,6.2
					C9,6.1,9,6.1,9,6.2z"/>
				<path class="ct5" d="M19.1,5.7c0,0-1.9-2-4.8,0.8s-0.6,5-0.6,5L19.1,5.7z"/>
				<path class="ct2" d="M16.9,5.3c0.5-1.1,1.5-1.9,2.7-2.2c0,0-0.7,3.4-2.8,3L16.9,5.3z"/>
				<path class="ct2" d="M16,5.7c0,0-0.6-0.7-3.2,0.4c0,0,2,2.5,3.6,0.1l0,0"/>
				<path class="ct2" d="M16.1,6c0.2,0.3,0.5,0.4,0.8,0.2c0,0,0,0,0,0c0.3-0.2,0.4-0.6,0.2-0.9C17,5,16.6,4.9,16.3,5.1
					C16,5.3,15.9,5.6,16.1,6C16.1,5.9,16.1,5.9,16.1,6z"/>
				<path class="ct4" d="M13,14.1c0.7,4.2,4.7,7.8,8.9,7.1s5.9-5.3,6.4-9.6c0.6-4.5-4.7-7.1-8.9-6.4C15.2,5.9,12.3,9.9,13,14.1
					C13,14.1,13,14.1,13,14.1z"/>
				<path class="ct1" d="M23.5,21.5L23,25.6c-0.1,1.4-1.2,2.4-2.6,2.4c-0.2,0-0.3,0-0.5-0.1l0,0c-1.5-0.2-3,0.1-3-1.3l1.5-8.2
					L23.5,21.5z"/>
				<polygon class="ct6" points="23.1,25 18.2,20.7 23.6,21 				"/>
				<path class="ct1" d="M23.2,23.2L23.2,23.2c2.9,0,5.3-2.4,5.3-4.7l0.1-5.6c0-3-2.3-5.5-5.3-5.6l0,0c-3.1-0.1-6.2,2.1-6.4,5.2v4.5
					C16.9,20.4,19.7,23.2,23.2,23.2z"/>
				<polyline class="ct7" points="25.6,17.4 25.7,18.4 25,18.4 				"/>
				<path class="ct8" d="M22.3,13.7c0,0,1.3-0.1,1.3,0.4c0,0,0,0.4-1.1,0.5s-1.4,0-1.5-0.3S21.6,13.7,22.3,13.7z"/>
				<path class="ct8" d="M27.3,13.7c0,0-1-0.1-1.1,0.4c0,0,0,0.3,0.9,0.4s1.2-0.1,1.3-0.4S27.8,13.6,27.3,13.7z"/>
				<path class="ct8" d="M26.6,16.3c0,0.3,0.1,0.5,0.4,0.5c0.3,0,0.5-0.1,0.5-0.4c0,0,0-0.1,0-0.1c0-0.3-0.2-0.5-0.5-0.5
					C26.8,15.8,26.6,16,26.6,16.3C26.6,16.3,26.6,16.3,26.6,16.3z"/>
				<path class="ct8" d="M22.5,16.2c0,0.3,0.2,0.5,0.5,0.5c0.3,0,0.5-0.2,0.5-0.5c0-0.3-0.2-0.5-0.5-0.5
					C22.7,15.7,22.5,15.9,22.5,16.2C22.5,16.2,22.5,16.2,22.5,16.2z"/>
				<path class="ct7" d="M25.7,20c-0.4,0.2-0.9,0.2-1.2-0.1"/>
				<path class="ct4" d="M18.4,15.5c0,0-0.4-3.9,1.2-5.2s6,0.7,7.9-0.9c-1-1.7-2.7-2.8-4.6-3c-2.5-0.1-6.5,1.9-6.5,1.9l-2.1,2.1
					l2.1,3.4L18.4,15.5z"/>
				<path class="ct1" d="M14.3,16c0,1.2,0.9,2.1,2.1,2.1c1.2,0,2.1-0.9,2.1-2.1c0-1.2-0.9-2.1-2.1-2.1c0,0,0,0,0,0
					C15.2,13.9,14.3,14.8,14.3,16z"/>
				<path class="ct9" d="M17.1,16.6c0,0,0-1.5-1.4-1.3"/>
				<path class="ct1" d="M21.4,26c2,0.1,4.1,0.5,6,1.1c0,0-4,4.4-16,0C11.4,27.1,14.4,26.3,21.4,26z"/>
				<path class="ct1" d="M11.5,38.7L6.1,50.6c-0.8,1.8-2.4,2.8-4.2,2l0,0C0.3,51.8-0.5,50,0,48.3l4.2-12.5L11.5,38.7z"/>
				<path class="ct2" d="M11.8,40.7l3.1-6.5c1-2.5-0.1-5.4-2.5-6.6l0,0c-2.5-1.2-5.5-0.1-6.7,2.3c0,0.1-0.1,0.1-0.1,0.2l-3.4,7.3
					L11.8,40.7z"/>
				<path class="ct3" d="M14.5,31.7c0.1,0.9,0.1,1.8-0.2,2.6c-0.4,1.5-2.1,6.3-2.1,6.3"/>
			</g>
		</g>
	</g>
</g>
</svg>
