<svg xmlns="http://www.w3.org/2000/svg" viewBox="0 0 10.66 13.47"><defs><style>.cls-1{fill:#384389;}</style></defs><title>logo-nav-icon</title><g id="Capa_2" data-name="Capa 2"><g id="Capa_1-2" data-name="Capa 1"><path class="cls-1" d="M10.52,8.82l0,.06,0-.07,0,0-.16-.12c-.13-.09-.25-.19-.37-.29a.52.52,0,0,1-.16-.17c-.08-.18-.15-.38-.23-.57a8,8,0,0,0-.3-.76c-.14-.34-.31-.66-.48-1L8.6,5.55v0L7.76,3.91,7,2.48l-.16-.3c-.35-.64-.7-1.31-1.06-2A.43.43,0,0,0,5.4,0,.43.43,0,0,0,5,.21v0L4.43,1.28l-.51.94c-.3.54-.6,1.09-.89,1.64l-.3.58c-.14.29-.3.59-.46.88A17.17,17.17,0,0,0,1,8.07s0,0,0,0L.6,8.37l-.46.31A.37.37,0,0,0,0,9.06a.34.34,0,0,0,.19.2.32.32,0,0,0,.27,0l.08,0,.21-.12,0,0A3.8,3.8,0,0,0,1.08,11a2.4,2.4,0,0,0,.17.32l.11.19a2.83,2.83,0,0,0,.86,1,4.58,4.58,0,0,0,2,.87,7,7,0,0,0,1.22.11c.28,0,.57,0,.87-.05A4.5,4.5,0,0,0,7.7,13,3.25,3.25,0,0,0,9,12.12a5.2,5.2,0,0,0,.64-1A3.51,3.51,0,0,0,10,9.25h0l.12.09a.32.32,0,0,0,.47,0,.34.34,0,0,0,.1-.24A.36.36,0,0,0,10.52,8.82ZM5.38.9c.13.22.25.42.36.63s.22.4.32.61l.21.4.29.54.33.61L7.63,5.1l.18.35.24.45c.18.34.37.7.54,1,.1.2.18.41.26.62l-.59-.43-.91-.67L6.08,5.53l-.27-.19-.09-.09a.45.45,0,0,0-.3-.16.48.48,0,0,0-.27.11l-.72.5-.07,0-1.1.76L2.51,7l0,0-.39.28L2,7.43l0,0c.18-.41.37-.83.57-1.24s.51-1,.77-1.48c.11-.19.21-.39.32-.59l.54-1L5.25,1.12c0-.08.09-.15.13-.22ZM3.47,7.18l.77-.52.5-.33.66-.47c.48.37,1,.74,1.47,1.09l.87.64L9.19,8.67a.12.12,0,0,1,.05.06,2.07,2.07,0,0,1,0,.22,2.5,2.5,0,0,1,.05.29.06.06,0,0,1,0,0,3.31,3.31,0,0,1,0,.45,3.45,3.45,0,0,1-.46,1.42,3.86,3.86,0,0,1-.57.74,3.45,3.45,0,0,1-1.14.68l-.11,0L7,10.54a.49.49,0,0,0-.49-.46H4.54a.48.48,0,0,0-.49.47L4,12.67a4,4,0,0,1-1.09-.48A2.84,2.84,0,0,1,2,11.36,3.64,3.64,0,0,1,1.46,10a3.22,3.22,0,0,1,.08-1.38v0l.26-.18C2.35,8,2.91,7.57,3.47,7.18Zm3,5.57a5.47,5.47,0,0,1-.61.05,8.4,8.4,0,0,1-1.26,0l.06-2.1H6.36Z"/></g></g></svg>